<mxfile host="app.diagrams.net" agent="Mozilla/5.0 (Windows NT 10.0; Win64; x64) AppleWebKit/537.36 (KHTML, like Gecko) Chrome/132.0.0.0 Safari/537.36" version="26.0.11">
  <diagram name="Page-1" id="aIZumiciJDBweoOCu92d">
    <mxGraphModel dx="1050" dy="557" grid="1" gridSize="10" guides="1" tooltips="1" connect="1" arrows="1" fold="1" page="1" pageScale="1" pageWidth="850" pageHeight="1100" math="0" shadow="0">
      <root>
        <mxCell id="0" />
        <mxCell id="1" parent="0" />
        <mxCell id="2x5KOI2VVmD8Ad78hVKM-4" value="" style="shape=image;verticalLabelPosition=bottom;labelBackgroundColor=default;verticalAlign=top;aspect=fixed;imageAspect=0;image=data:image/png,iVBORw0KGgoAAAANSUhEUgAAAgAAAAIACAYAAAD0eNT6AAAACXBIWXMAAA7DAAAOwwHHb6hkAAAAGXRFWHRTb2Z0d2FyZQB3d3cuaW5rc2NhcGUub3Jnm+48GgAAIABJREFUeJzt3XuUXHWd9/vPd1dXd6erk5BwyRUcUCAhBAYSEJFRA6xRyDM4+hwjCXeVxAEh4MyaWV44p89RjrMeL0wQGQm4EHQJT6P44OPgWWuUgMqoQIdEDAlJgJCgkAvdVd1V3V3dVft7/iCNIYaQdKrrV1X7/frP7q69P5hO7U++3+69JQAAkDgWOgCA6uhY583Du/JnmfwMxX6sLJosSfK4W5G96LIn00e0/7Zjjg0FjgqgCigAQIO76ZHsvDiKPm3SIkkT3ubLe13qlMd33LzgsKeqkQ9AGBQAoAEtfcrTR+bzf2+Kl0p2/qgOYtZl0spU3H5vxwIbrHBEAIFRAIAG8vmf56dE6fhKuV8r2dEVOux2ub7bpKbbOha0vVyhYwIIjAIANIDdY/6lJl0madwYnWbIpIfco5VfXtD+8zE6B4AqoQAAdapjnTcP78x/2MyXy/Xe6p7dVpvpjny6/Xu3nG0D1T03gEqgAAB1pmNVfmopiq+Q6zOSZgaOs0Ouu5vSpds7zpm8NXAWAAeBAgDUiZseyc7zKFou6WJJ6dB59lKW9DN5tIL1AFAfKABADbvuYW+Z0Ja/yOQ3SnpP6DwHxp82i76dyvR9v2P+9P7QaQDsGwUAqEGf/2VhWlQuLZPZNZKODJ1nlLImuzcul75x83mTXgodBsCbUQCAGlLjY/7RiiU9LI9WfPkDmV/IzEMHAkABAIK77mFvOSzT+3F3+6ykU0PnGWPPyfzfBwcH7vraB6cWQocBkowCAATS8evC9NJwaanMrpV0ROg8VZYz2T0pL93SsWDSltBhgCSiAABV9oVVvedEputd+oikptB5Aoslf8Rlt978/vE/ZT0AVA8FAKiCjlXeWo56F7nbP0o6JXSeWmTSRje/nfUAUB0UAGAMdfwqe1ypFC2V6VOSDg+dp070unR/7LrlKwsmbAgdBmhUFABgDDDmrwjWA8AYogAAFdKxakd7ORq3xN2vk3Ry6DwNZpNM32mKy3d0LJiUDR0GaAQUAOAQffEX2Xcqiq6W6WpJk0PnaXB9Lt0XR7biK+8b/2zoMEA9owAAo+FuX3y0cJ5ZvNSlj0pKhY6UMC75L1zRyo072h98YJGVQwcC6g0FADgI//zrneNbyq2L5b7cpZNC54Ek6XmZ7ixF8cp//ZvDekKHAeoFBQA4AB2rcu8qyT4l01JJk0LnwT7lXfqBu33z/10w/g+hwwC1jgIAvIUO96j0aOFcWbxc0kLx96V+mB53txWsB4C3xhsasJeO3742oVxsvtjdb5A0O3QejJ5LL5hpZVPa7+w4e2J36DxALaEAALt97le9JzSV7VqXf0JSe+g8qKhBSQ+YRV/90vvbnwkdBqgFFAAkGmP+BNq9Hkh7+487FlgpdBwgFN7skEj/8p/dE9PNqSvltlzSsaHzIIg/yf3OJtltHQsm7AodBqg2CgAS5YuP9J5okV3j8k9KyoTOg5pQlNRpcfT1L53bvjZ0GKBaKABoeB3u0fBjfQtNfr1k54nve7wVsy5TfGsqnvAD1gNodLwRomHtMea/UdI7QudBXXlF7ivLqehbX3nf+J2hwwBjgQKAhnPTYz2nxZ76tMkulbwtdB7UtaJJP4ndv3Hzgom/DR0GqCQKABrCxzo9dcJRfRfuHvOfHzoPGtDu9cD2zIT7Vs634dBxgENFAUBd63i876hSya+S2zWSHxM6DxLhVbnu8bjpmzef1/bH0GGA0aIAoC59/pfZ0y2Olpl0maRxofMgkYZMeig2/dvN75/wX6HDAAeLAoC60bHOm4d35j9sipcy5kdNMesyaWUqbr+3Y4ENho4DHAgKAGre53+enxKl4yvlfq1kR4fOA+zHdrm+26Sm2zoWtL0cOgywPxQA1KybHsnOi6NoqUmXS2oNnQc4CEMmPeQerfzygvafhw4D7AsFADXljTG/+XK53hs6D3DobLWZ7sin2793y9k2EDoNMIICgJrQsSo/tRTFV8h1naQZofMAY2CHXHc3pUu3d5wzeWvoMAAFAEHd9Eh2nkfRckkXS0qHzgNUQVnSz+TRCtYDCIkCgKq77mFvmdCWv8jkN0p6T+g8QDj+tFn07VSm7/sd86f3h06DZKEAoGo+/8vCtKhcWiazayQdGToPUEOyJrs3Lpe+cfN5k14KHQbJQAHAmGPMDxywWNLD8mjFlz+Q+YXMPHQgNC4KAMbEdQ97y2GZ3o+722clnRo6D1BvTNrg5t8eHBy462sfnFoInQeNhwKAiur4dWF6abi0VGbXSjoidB6gAeRMdk/KS7d0LJi0JXQYNA4KACriC6t6z4lM17v0EUlNofMADSiW/BGX3Xrz+8f/lPUADhUFAKPWscpby1HvInf7J0lzQ+cBksKkjW5+O+sBHAoKAA5ax6+yx5VK0VKZrpY0OXQeIMF6Xbo/dt3ylQUTNoQOg/pCAcAB22PM/1FJqdB5ALyB9QAOGgUA+9Wxakd7ORq3xN2vk3Ry6DwA3tYmmb7TFJfv6FgwKRs6DGoXBQD79MVfZN+pKLpapqWSJoXOA+Cg9bl0XxzZiq+8b/yzocOg9lAA8Gfu9sVHC+eZxUsZ8wMNY/d6IFq5cUf7gw8ssnLoQKgNFADon3+9c3xLuXWx3Je7dFLoPADGhkubzXRXKYpX/uvfHNYTOg/CogAk2Bcfyx2v2D4p0zJJh4XOA6Bq+ly6L4rt1i+dO35d6DAIgwKQMB3uUenRwrmyeLmkheJ7AEg20+PutoL1QPLw5p8QHb99bUK52Hyx3G90aVboPABqi0svmGllU9rv7Dh7YnfoPBh7FIAG97lf9Z7QVLZrXf5JSZnQeQDUvEFJD5hFX/3S+9ufCR0GY4cC0IAY8wOoiN3rgbS3/7hjgZVCx0FlcWFoIP/yn90T082pK93tBpP+KnQeAA3jT3K/s1y2b37l/AmvhQ6DyqAANIDPreqd1WT2D4z5AYyxoqROi6Ovf+nc9rWhw+DQUADqVId7NPxY30KTXy/ZeeLPEkA1mXWZ4ltT8YQfsB6oT1w06kzHqp7DSlF0hdxulPSO0HkAJN4rcl/ZJLutY8GEXaHD4MBRAOrETY/1nBZ76tMmu1TyttB5AGAvRZN+Ert/4+YFE38bOgzeHgWghn2s01MnHNV34e4x//mh8wDAAdm9HtiemXDfyvk2HDoO9o0CUIM6Hu87qlTyq+R2jeTHhM4DAKP0qlz3eNz0zZvPa/tj6DB4MwpADbnpkey8OIqWmnSZpHGh8wBAhQyZ9FBs+reb3z/hv0KHwesoAIF1rPPm4Z35D5vipYz5ATQ8sy6TVqbi9ns7Fthg6DhJRgEI5PM/z0+J0vGVcn1G0szQeQCgyrbL9d0mNd3WsaDt5dBhkogCUGV7jPkvl9QaOg8ABDZk0kPu0covL2j/eegwSUIBqII/j/n9Bklnh84DADVp93ogn27/3i1n20DoOI2OAjCGOlblp5ai+Aq5rpM0I3QeAKgTO+S6uyldur3jnMlbQ4dpVBSAMXDTI9l5HkXLJV0sKR06DwDUqbKkn8mjFawHKo8CUCHXPewtE9ryF5n8s5LOCp0HABqLP20WfTuV6ft+x/zp/aHTNAIKwCH6/C8L06JyaZnMrpV0ROg8ANDgsia7Ny6XvnHzeZNeCh2mnlEARmmPMf9iSU2h8wBAwsSSHpZHK778gcwvZOahA9UbCsBBuO5hbzks0/txd/tHSaeEzgMAkEza4ObfHhwcuOtrH5xaCJ2nXlAADkDHrwvTS8OlpTL7jKTDQ+cBAOxTzmT3pLx0S8eCSVtCh6l1FID9+MKq3nMi0/UufUSM+QGgXsSSP+KyW29+//ifsh7YNwrAXjpWeWs56l3kbv8kaW7oPACA0TNpo5vfznrgL1EAduv4Vfa4UilaKtPVkiaHzgMAqKhel+6PXbd8ZcGEDaHD1ILEF4A9xvwflZQKnQcAMKZYD+yWyALwz7/eOb6l3LrY3a+XNCd0HgBAEJtk+k5TXL6jY8GkbOgw1ZaoAtCxKveukuxTMi2VNCl0HgBATehz6b44shVfed/4Z0OHqZaGLwAd7lHp0cK5ZvFSxvwAgP3YvR6IVm7c0f7gA4usHDrQWGrYAtDx29cmlIvNF7v7DZJmh84DAKgfLm02012lKF75r39zWE/oPGOh4QrAFx/LHa/YPinTMkmHhc4DAKhrfS7dF8V265fOHb8udJhKaogCMDLml8XLJS1Ug/x3AQBqiOlxd1vRKOuBur5Qjoz55X6jS7NC5wEAND6XXjDTyqa039lx9sTu0HlGqy4LwBcf6T3RIrvG5Z+UlAmdBwCQSIOSHjCLvvql97c/EzrMwaqbAsCYHwBQs3avB9Le/uOOBVYKHedA1PxF9F/+s3tiujl1pbvdYNJfhc4DAMB+/Enud5bL9s2vnD/htdBh9qdmC8DnVvXOajL7B5c+JXlb6DwAAByEoqROi6Ovf+nc9rWhw+xLTRWADvdo+LG+hSa/XrLzVGP5AAA4aGZdpvjWVDzhB7W0HqiJC2zHqp7DSlF0hdxulPSO0HkAABgDr8h9ZZPsto4FE3aFDhO0ANz0WM9psac+bbJLGfMDABKiaNJPYvdv3Lxg4m9Dhah6AfhYp6dOOKrvwt1j/vOrfX4AAGrG7vXA9syE+1bOt+GqnrpaJ+p4vO+oUsmvkvu1kh1drfMCAFAHXpXrHo+bvnnzeW1/rMYJx7wA3PRIdl4cRUtNukzSuLE+HwAAdWzIpIdi07/d/P4J/zWWJxqTAtCxzpuHd+Y/bObL5XrvWJwDAICGZtZl0spU3H5vxwIbrPjhK3mwjlX5qaUovkKuz0iaWcljAwCQUNvl+m6Tmm7rWND2cqUOWpECcNMj2XkeRcslXSwpXYljAgCANxky6SH3aOWXF7T//FAPNuoC8MaYX36jpPccahAAAHCAdq8H8un2791ytg2M6hAH+4LP/7IwLSqXlsnsGklHjuakAACgInbIdXdTunR7xzmTtx7MCw+4ADDmBwCgZpUl/UwerTjQ9cD+C4C7ffHRvg/L/P+S7K8rkRAAAIwhsy53/79v/sCE/73fL3urT3xuVe+slOluSWdVPBwAABhr/6VYn/jyuROe29cno3198AuP5S5JmXWJiz8AAPXqbEXq+sKjucX7+uRfFICbVuU+Y27f4+E8AADUvYzJvn/Tqr5P7/2JN60AvvhY30fl/sO9Pw4AAOqau9nim98//n+OfOCNCcB//9+9s0qx/7O4+AMA0GhsqFy+8bTOTSeNfKBJkuRuAw8Ubv/9oN7dmrIXjmmPX25v1nzWAAAA1LVib6n0uye7eybtGiq+W6475P4+mblJ0gWdfR83s/v3fEVk6p6RKT99+LjoxEjOff0BAKgTsfv2bQP9m57O5k4qxvHkPT9npsUbLznp/iZJMumGv3yxJm/Lp87bVlA8qdlWz8zE5XRK88WKAACAmjTs8do/5Ppym/L5s10+ZV9f467rJd1vH/ph/pTItfZADjwu5RuPadfLmWZ/t6RMJUMDAIBRKWaHS6uf7Ok+vHto6IQDeUEURac2metDB3qGgbKd8FxOJ6Qi9U3P+C+PaLVjTX706DMDAIDRcPmr2/r7n+vK5k4eiuODeihf7OW/bTLpbw72pOXYxm/rs/dty7MeAACgmoY8fmZdri+/KZ8/w+VTR3UQj/6myWSzXD66FK6op6jTe4qRWptsyzGZeGsm7fPMWA8AAFBBg7nhUtcTPd1HdQ8NzT3Ug7n5LLvwgXyPpMMqEE6SlIq8b0qb1hzVEs+IIjuuUscFACBpYvnWrYX+F9f05uYWy2/+af5D1G0XPpAv6y2eCXBITPGkFj05MxMrHelMsR4AAOCAFOPyuj/kegefL/Sf5vLKX6OluEljcfGXXl8PDOrdPYORxqX00vRMvGVii05VBacNAAA0DFf+taHi06tzuandQ0NzxvhskV34QH6UPwAwmrN5fmpGTx81zqdF0ruqdV4AAGpV7P7S1v7+LU/ncqcMxfGkap23qgVgDz6pRU9Pz8TFlpTOlJQKkAEAgFDiYlxe82xvvrgpnz/T5VW/DjZV+4S72Z9/e0BbZ7TFL05o0SkmVa35AABQdbvH/E9lc9Ozw0Onh4wSagLwF1JSYUq7rz6qNZ4WmbEeAAA0jNh9y9b+/pfWZHOnFj2uiZ+Fq5kCsKeJaT0zc3ycb0npDIWbUgAAcCjiYlxesybbW97SX6i5m+XV5MU1N6y5ue5ILSnfNjPjL0xs1Vy5Kvn7jwAAjAl39XUPFdc8mc1NzwUe8+9PTU4A9haZDU5pi7umtPmRkXRADzoAAKCaYvctz/cXtq7tyc4r18ED8+qiAOyJ9QAAoIbU9Jh/f+ruAjqyHkintH1GJt4wqcXnmoz1AACgeky9OweLa57s6Tm2r1Sq2TH//tTdBGBvJhWnZvypKW3xkZGM9QAAYMzE8heeLxReXpvNzSu71/yYf3/qvgDsqT3t648Zr+7WlJ8pKR06DwCgIcT95XLXmmwutW2g/zTV0Zh/f+puBbA/+WGb/Wy3lE7Z6+uBZp1spsND5wIA1B+XcruKxbW/6+4+rlAunxE6T6U11ARgbyYVjxhnq6e3lcenIp0cOg8AoPaV3Ddsyud3rs/3zhsue1voPGOloSYAe3OpZeeAv2fnQMR6AACwP+X+cnn17jH/6ZJmhQ401hq6AOxpZD3QHNmOae3x+sNbdKKkqaFzAQDCcdeuVwYH1z2d6zk+X2q8Mf/+NPQKYH/MNHREq3VNy5Tbm0xzQ+cBAFRPKfYNmwr5net6++aXPR4XOk8IiZkA7M1dzXuuB2ZkfFcmrTMktYbOBgAYE0P5Uqnr97nelqSM+fcnsQVgT/lhm/1c1tQUaeeM9vh3h7foeEnTQ+cCABw6l3a+MjD47Ops9vhCufSe0HlqRWJXAPszsh6Y2lZqSUdWl3d4AoCkG5bWb+7r25XkMf/+MAHYhz+vB1JqS/uGozO+M5PWfEl8AwFAbRvKl0pdXdls5tXBwVNCh6llTAAOUDqlXdMz8bpJaR0fRawHAKCWuLTjlYHB9auzPScUyuVpofPUAwrAwStPbo1Xz8h4ivUAAIQ1LK1/rje3/dm+/Fnuzg9xHwRWAAcv1T0YndE9KGXSvmFmxndm0jZPaty7RQFAjSnmS6XVq7M97a8MFudKmh06UD1iAlABTabctPZ47RGt9k6TzwidBwAakbu2vzw48ExXtmdOsRwz5j9EFIBKMsWTW+Ku3euBhnliFACENCyt39Db272+r+9Md+dW7hXCCqCSXNHIemBck148OuPb2pt9nqS6fmY0AARQ7C2Vfvdkd89hu4aK/DT/GGACMMZS5r3T233N4a12XCSfGToPANSy2H37ywP9G1Znc3OLcTw5dJ5GRgGoFlM8qVlrZmbicjql+WI9AABvGPZ47R9yfblN+fzZLmc6XQX8n1wtrqinqNN7ipFam7TlmIxvZT0AIOEGc8Olrid6uo/sHho6NXSYpGECEFAq8r4pbVozZZzPMOm40HkAoBrc9dLWwf5Nq7PZ04fKjPlDoQDUAtYDABJgyONn1uX68pvy+TMY84fHH0AteNN6wLbMaCu/NKFFf23SxNDRAOAQ5XuGhp56Mpud0TM0NDd0GPwZE4AaFZnnp2b09JRWn26md4bOAwAHI5Zv3Vrof3FNLndKMY4nhc6Dv0QBqHW71wPTM3GxJaUzJaVCRwKAt+DFuNz1bG9+eFM+f6bLeb+qYawAat0e64FxKb00PRNvmdiiUyUdFjoaAEiSXPnXhopPd+Vy03qGhuaHjoMDwwSgDo2sB44a59Mi6V2h8wBIptj9pa39/VvW5HpPLcZl/lFSZygAdW5iWs/MHB/nWQ8AqJK4GJfXrM32DrzYXzhLvO/ULVYAdS43rLm57kgtKd82M+MvTGjRKSbxAzcAKspdfd1DxTVPZbPTs8PDp4fOg0PHBKDBRGaDU9ririnj/KjIdHzoPADqW+y+5YVC/vm1vX3zS3HMryY3EApAA9tjPXCGmPYAOHBxMS6vWZPtLW/pL3BzsgbFRaGBjawH0iltn5GJN0xu1Vy5uO0mgH0z9e4aHHrqiZ7ud/SVSoz5GxwTgAQxqTg1409NafMjI+mE0HkA1IZY/uLzhcK2tdncvLI7DyhLCApAQrWnff0x49XdmvJ3i0kQkETxQBw/saYnq60D/e8WY/7E4Y0/ofLDNvvZbqk5sh3T2+P1k1p8rslYDwCNztS7c7C45onunuPy5dJZoeMgHCYAkPT6euCIcbZ6RiYeH5mfHDoPgMqK5es39eVf+UNf77tLMWN+MAHAbi617Bzw9+wcMLWnNbIeOFNSOnQ2AKMW95fLXWuyudS2gf7TJM0OHQi1gwKAv7DnemBae7z+8BadKGlq6FwADtiuVwYG1nblsrMKpfIZocOgNrECwNsy09ARrdY1PRO3p8x5njdQo0qxb9hUyO98trdvXsnjttB5UNuYAOBtuauZ9QBQs8r95fLq3WP+0yXNCh0I9YECgIOy93pgcotOMGla6FxA0rhr1yuDg+tW9+beVRgeZsyPg8YKAIdkZD0wLVNubzKxHgDG2LD7+s35/K51vX3zyx6PC50H9YsJAA7Jn9cDkdrTvn5Gxndl0poviTcmoHKG8qVS1+9zvS27x/zAIaMAoGLywzb7uawpndKu6Zn4icNbdLyk6aFzAfXKpZ2vDAw+uzqbPb5QLr0ndB40FlYAGDNmGj6i1Z6a2lZqSUfGv1qAAzQsrd/c17drXW/fGWWPW0PnQWNiAoAx46706+uBlNrSvuHojO9kPQC8paF8qdTVlc1mXh0cPCV0GDQ+JgCoqt3rgXWT0jo+ilgPAC7teGVgcH1XtufE/nKZG26haigACMMUT26Ju2ZkPMV6AEk0LK3f0Nvbvb6v70x3554aqDpWAAjDFXUPRmd0D0qZtJ6bmYl3ZNI2T3LuXoZGVsyXSquf6u4Zv32oyEO3EBQTANSMlHnv9HZfc3irHRfJZ4bOA1SKS9u39Rc2rO7JnVz0+PDQeQCJAoBa9Ob1wGmSLHQkYDTeGPP39p3pYsyP2sIKALVnj/XAuCa9eHTGt7U3+zxJPMMc9aCYGy499US254juYpHH76JmMQFAXRhZDxzRasea/OjQeYC9xe7bXx7o39CVzZ08FDPmR+2jAKC+mOJJzVozMxOX0ynNF+sBBDbk8TPrcn35Tfn8GS5nqoq6wTcr6osr6inq9J5ipNYmbTkm41szaZ9nxnoAVTWYGy51PdHdfWT38BAPwUJdYgKAupeKvG9Km9Yc1RLPiCI7LnQeNK7YfdvW/v4X1vTm5hbL8eTQeYBDQQFA42A9gDHCmB+NiG9kNI491gPjUnppeibeMrFFp0o6LHQ01CFX/rWh4tOrc7mp3UOM+dF4mACgoUXm+akZPT2l1aeb6Z2h86D2xe4vbe3v3/J0LnfKUBxPCp0HGCsUACSFT2rR09MzcbElpTMlpUIHQk3xYlx++tnefHFTPn+my/n+QMNjBYCksD1+e2DrjLb4xQktOsUk/oWXZLvH/F253LSeoSEeSoVEYQKAxEpJhSntvvqo1nhaZPau0HlQPbH7lq39/S+tyeZOLXrMz4ggkSgAgKSJaT0zc3ycZz3Q0OJiXF6zJttb3tJf4LdEkHisAABJuWHNzXVHakn5tpkZf2Fiq+bKxe95NwB39XUPFdc8mc1Nzw0z5gdGMAEA9iEyG5zSFndNGedHRabjQ+fBwYvdtzzfX9i6tic7r8yDpIC/QAEA3sYe64EzxNSs1jHmBw4Qb2bA2xhZD6RT2j4jE2+Y1OJzTcZ6oJaYencOFtc82dNzbF+pxJgfOABMAICDZFJxasafmtIWHxnJTgidJ8li+YvPFwrb1mZz88rujPmBg0ABAA5Be9rXHzNe3a0pf7eYqFVLPBDHT6zpyWrrQP+7xZgfGBXesIBDkB+22c92S+mUvb4eaNbJZjo8dK5G5FJuV7G49nfd3ccVyuWzQucB6h0TAKCCTCoeMc5Wz8jE4yPzk0PnaQQl9/XP5/OvrMv3njVc9rbQeYBGwQQAqCCXWnYO+Ht2Dpja0xpZD5wpKR06W50p95fLq9dkc6ltA/2nSZodOhDQaCgAwBgZWQ80R7ZjWnu8/vAWnShpauhctcylna8ODPy+K5edVSiVzwidB2hkrACAKjHT0BGt1jU9E7enzHm+/B5KsW/YVMjvfLa3b17JY8b8QBUwAQCqxF3Ne64HZmR8VyatMyS1hs4WyFChXHpybbZ33LaB/tMlzQodCEgSCgAQQH7YZj+XNTVF2jmjPf7d5BadYNK00LmqwaWdrwwMPrs6lz2+UCq9N3QeIKlYAQA1YGQ9MLWt1JKOrCHvZDcsrd/c17drXW/f/LLH40LnAZKOCQBQA/68HkipPe0j64H5kur9QjmUL5W6nu7Jpv9UHJwfOgyAP6MAADVmZD2QTmnX9Ez8xKS0jo8iTQ+d62C4tOOVgcH1q7M9JxTK5feEzgPgL7ECAGpfeXJrvHpGxlO1vh4YltY/15vb/mxf/ix3T+oPNwJ1gQkAUPtS3YPRGd2DUibtG2ZmfGcmbfOkmrkrXjFfKq1ene1pf2WwOFfctAeoC0wAgDrUZMpNa4/XHtFq7zT5jBAZ3LX95cGBZ7qyPXOK5TgRv8EANBIKAFDPTPHklrhr93rgNFXhyXjD0voNvb3d6/v6znR3bnEM1ClWAEA9c0Uj64HWlL1wTHv8cnuz5o/BeqDYWyr97snunsN2DRVPqfCxAQTABABoMCnz3untvubwVjsuks88lGPF7ttfHujfsDqbm1uM48mVygggPAoA0KhM8aRmrZmZicvplObrINYDwx6v/UOuL7cpnz/b5UwKgQbEX2ygUbminqJO7ylGam3SlmMyvrW92edJyrzFKwZzw6WuJ7I9R3QXi6dWMyo3hG6VAAAUiklEQVSA6mMCACRIKvK+KW1aM2WczzDpuNc/altfGihsXJ3Nnj5UZswPJAUFAEgiU3x4a/zUjuGe8ov9hTPdlQodCUB1sQIAksgVvTYQnflCsVCSuPgDSRSFDgAAAKqPAgAAQAJRAAAASCAKAAAACUQBAAAggSgAAAAkEAUAAIAEogAAAJBAFAAAABKIAgAAQAJRAAAASCAKAAAACUQBAAAggSgAAAAkEAUAAIAEogAAAJBAFAAAABKIAgAAQAJRAAAASCAKAAAACUQBAAAggSgAAAAkEAUAAIAEogAAAJBAFAAAABKIAgAAQAJRAAAASCAKAAAACUQBAAAggSgAAAAkEAUAAIAEogAAAJBAFAAAABKIAgAAQAJRAAAASCAKAAAACUQBAAAggSgAAAAkEAUAAIAEogAAAJBAFAAAABKIAgAAQAJRAAAASCAKAAAACUQBAAAggSgAAAAkEAUAAIAEogAAAJBAFAAAABKIAgAAQAJRAAAASCAKAAAACUQBAAAggSgAAAAkEAUAAIAEogAAAJBAFAAAABKIAgAAQAJRAAAASCAKAAAACUQBAAAggSgAAAAkEAUAAIAEogAAAJBAFAAAABKIAgAAQAJRAAAASCAKAAAACUQBAAAggSgAAAAkEAUAAIAEogAAAJBAFAAAABKIAgAAQAJRAAAASCAKAAAACUQBAAAggSgAAAAkEAUAAIAEogAAAJBAFAAAABKIAgAAQAJRAAAASCAKAAAACUQBAAAggSgAAAAkEAUAAIAEogAAAJBAFAAAABKIAgAAQAJRAAAASCAKAAAACUQBAAAggSgAAAAkEAUAAIAEogAAAJBAFAAAABKIAgAAQAJRAAAASCAKAAAACUQBAAAggSgAAAAkEAUAAIAEogAAAJBAFAAAABKIAgAAQAJRAAAASCAKAAAACUQBAAAggSgAAAAkEAUAAIAEogAAAJBAFAAAABKIAgAAQAJRAAAASCAKAAAACUQBAAAggSgAAAAkEAUAAIAEogAAAJBAFAAAABKIAgAAQAJRAAAASCAKAAAACUQBAAAggSgAAAAkEAUAAIAEogAAAJBAFAAAABKIAgAAQAJRAAAASCAKAAAACUQBAAAggSgAAAAkEAUAAIAEogAAAJBAFAAAABKIAgAAQAJRAAAASCAKAAAACUQBAAAggSgAAAAkEAUAAIAEogAAAJBAFAAAABKIAgAAQAJRAAAASCAKAAAACUQBAAAggSgAAAAkEAUAAIAEogAAAJBAFAAAABKIAgAAQAJRAAAASCAKAAAACUQBAAAggSgAAAAkEAUAAIAEogAAAJBAFAAAABKIAgAAQAJRAAAASCAKAAAACUQBAAAggSgAAAAkEAUAAIAEogAAAJBAFAAAABKIAgAAQAJRAAAASCAKAAAACRRJ8tAhAABAVcWRpFzoFAAAoKqykcxeC50CAABU1WuRPP5D6BQAAKCqnolM9pvQKQAAQBWZ/yYqe/y/QucAAABVVI7/I/r/Fk14TtITobMAAICx5/LHN10+d/3r9wEw/x+B8wAAgCqI3L4m7b4R0MP/vf1BuT0eNhIAABhjv9p42Un/Sxq5E6CZR1HpKkm9IVMBAIAxk1dcXjbyP964FfBP/4+Jm0y+TNwZEACARhO7+yc3XT53/cgH3vQsgP/42Pj7ze1qSXHVowEAgLHgLl23+bI5nXt+8C8eBvQfizLfcfclkvqqFg0AAIyFXne/ePOlJ92+9yf2+TTAny0a/z/LXj5d0mNjHg0AAFSe67HYfd7e//IfYW/3+g/9sHBh5P7/SJpX8XAAgtpU3FqS1BQ6B4CKWi3X/7npspP+Y39f9LYFYMTCzsI8j3y5XBdLSh9yPADBUQCAhlGW9DMzrdh4yUk/P5AXHHABGHFhZ36qma5w6TOSZh7s6wHUDgoAUO9sh7nfXXK//YXL52w9qFeO9pQf6/Tmfst/2D1aLvP3jvY4AMKhAAB1a7WZ3dGfbv/ey4uOHhjNAUZdAPa0sLMwL47ipeZ2uaTWShwTwNijAAB1ZchkD8l85YGO+fenIgVgxEU/yE8pp3Wlm66V6+hKHhtA5VEAgLqw3VzfLTeVv/X84rnbKnXQihaAEX9eD9hSmc4fi3MAOHQUAKB2mdQls5VDQ633brnq2MExOP7Y+rsfFU4vebzM3C6TNG6szwfgwFEAgJozZLKHTLbiuUtnjelD+sa8AIz42wf7jkqX7SqXrpF0TLXOC+CtUQCA2mDSq3Ldozj1zY1XnPjHKp2zujo6PPrdyf0LLfbrWQ8AYVEAgLBM6pLr1vH9/fd1LZs/XOVzh3PBDwunSfGnze1SSW0hswBJRAEAAnAVzewncaRbNi+Z/ZtQMYIWgBF//+Oew4aG01fIdKOkd4TOAyQFBQCoqlfMfWXc0vytzYuO3xk6TE0UgBF7rQfOU43lAxoNBQAYeyHH/PtTsxfYD3X2nhhZdI2kT0rKhM4DNCIKADBGXEUzdcrjr2+87OS1oePsS80WgBHnd3ZPbFbzlTItl3Rs6DxAI6EAABX3J3O/U6mm2zYuOXFX6DD7U/MFYERHh0dPzi2c67GWS1qoOsoO1CoKAFAZLn9cphUzp+/48aMLFpRC5zkQdXkRvfD+3hOUiq4V6wHgkFAAgEMyaNIDFkVfe27JrN+HDnOw6rIAjLjg+69NiJpbL3bzGyXNCp0HqDcUAGBUXnTTHU0lu2vDFbNfCx1mtOq6AIxgPQCMDgUAOHD1OObfn4a7UP63H+aOL3vqkyYtk3RY6DxALaMAAG9r0KQHyrH+x/OXn/SH0GEqqeEKwIiLHto5vlxsW+zmyyWdFDoPUIsoAMBbcD3vke5sSfud6xbN6Q4dZyw0bAEY8ef1gC2V/KOSUqEzAbWCAgC82ciYf3P6pAe1yMqh84ylhi8Ae/pgZ+5dkaU+ZdJSSZNC5wFCowAAkqQ+ud/nKd26ecmcdaHDVEuiCsCIkfWAzK93aU7oPEAoFAAk3GY33TWk0sqtl5zSEzpMtSWyAOzpQ52950SWup71AJKIAoAEiiU94uYrkzDm35/EF4ARC380eFwcl5aadLWkyaHzANVAAUCCvD7mN63YfOmcZ0OHqQUUgL184G5vHddeWGTSP0maGzoPMJYoAEiATW76TmmoeMeWq07Lhg5TSygA+7HHeuAj4k0SDYgCgAb1+pg/sls3L571U5l56EC1iAJwAC66rzC91BQvddlnTDo8dB6gUigAaDC9cr/fUk23bFxy4obQYWodBeAgXPCwt6hQ+LhJ/yjplNB5gENFAUAjcNNGi3X7OB++6/eXn1oInadeUABGaWFnYZ5HvlyuxeINFHWKAoA6xpj/EFEADtEHf1SYlorjZZJdK+mI0HmAg0EBQB3KSXZPKqVbNiyevSV0mHpGAaiQCx72lqiQv8hdn5XZWaHzAAeCAoA68pxc/86Yv3IoAGNgj/XAxZLSofMAb4UCgBoXS3rYTCs2Lpn9C8b8lUUBGEMXduanmukKl66TNCN0HmBvFADUqKxk95bMv/HiJSe9FDpMo6IAVMHHOr253/IfdukGyc4OnQcYQQFATXE9bZF9O58vfP9Py+b3h47T6CgAVbawszAvjuKl5na5pNbQeZBsFADUgLKkn5lpxcZLTvp56DBJQgEI5KIf5KeU07rSpc9Imhk6D5KJAoBwbIe5311yv/2Fy+dsDZ0miSgAgb2xHvBouczfGzoPkoUCgABWm9kd/en277286OiB0GGSjAJQQ/ZYD1wmaVzoPGh8FABUyZDJHpL5Ssb8tYMCUIP+9sG+o9Jlu8pN18p1dOg8aFwUAIyx7eb6brmp/K3nF8/dFjoM3owCUMPm3eHpqZPzf+9uS2U6P3QeNB4KAMaCSV0yWzk01HrvlquOHQydB/tGAagTf/ejwuklj5exHkAlUQBQQUMme8hkK567dNbjocPg7VEA6swFnX1HRmafcOkaSceEzoP6RgHAoTLpVbnuUZz65sYrTvxj6Dw4cBSAOtXR4dHvTu5faLFfz3oAo0UBwGiZ1CXXreP7++/rWjZ/OHQeHDwKQAO4sDP/1x75P5jbpZLaQudB/aAA4KC4imb2kzjSLZuXzP5N6Dg4NBSABnJ+Z/fEZjVfqUg3yPVXofOg9lEAcIBeMfeVcUvztzYvOn5n6DCoDApAA9prPXCe+HPGW6AAYH8Y8zc2LgwN7kOdvSdGFl0j6ZOSMqHzoLZQAPAXXEUzdcrjr2+87OS1oeNg7FAAEuKN9YBpuaRjQ+dBbaAAYA9/Mvc7lWq6beOSE3eFDoOxRwFImI4Oj56cWzjXYy2XtFB8DyQaBQAuf1ymFTOn7/jxowsWlELnQfXw5p9gF97fe4JS0bUm+4TL20PnQfVRABJr0KQHLIq+9tySWb8PHQZhUACgC77/2oSoufVij/wGuWaHzoPqoQAkzh/N/a4ojr654YrZr4UOg7AoAHgD64HkoQAkA2N+7Atv8NinD3bm3hVZ6lMmLZN0WOg8GBsUgIY2aNIDkeyrGy6d/UzoMKg9FADs10UP7RxfLrYtdvPlkk4KnQeVRQFoQK7nPdKdLWm/c92iOd2h46B2UQBwYNxt4YOF8zy2pZJ/VFIqdCQcOgpA4xgZ829On/SgFlk5dB7UPgoADtoF92ffqVTT1SZdLWly6DwYPQpA3euT+32e0q2bl8xZFzoM6gsFAKP2gc4d7Rlllrj8OplODp0HB48CULc2u+muIZVWbr3klJ7QYVCfKACoiA919p4TWep61gP1hQJQV2JJj7j5Ssb8qAQKACpq4Y8Gj4vj0lLWA/WBAlAXXh/zm1ZsvnTOs6HDoHFQADAmPnC3t45rLywy6Z8kzQ2dB/tGAahpm9z0ndJQ8Y4tV52WDR0GjYcCgDG3x3rgI+JiU1MoADXn9TF/ZLduXjzrpzLz0IHQuCgAqJqL7itMLzXFSyW7VtIRofOAAlBDeuV+v6Wabtm45MQNocMgGSgAqLoLHvYWFQofN9dnZTo1dJ4kowCE5aaNFuv2cT581+8vP7UQOg+ShQKAoBZ2FuZ55MvlWiwuRFVHAQiCMT9qAgUANeGDPypMS8XxMtYD1UUBqKqcZPekUrplw+LZW0KHASgAqCkXPOwtUSF/kbs+K7OzQudpdBSAqnhOrn9nzI9aQwFAzdpjPXCxpHToPI2IAjBmYkkPm2nFxiWzf8GYH7WIAoCad2FnfqqZrnDpOkkzQudpJBSAistKdm/J/BsvXnLSS6HDAPtDAUDd+FinN/db/sMu3SDZ2aHzNAIKQIW4nrbIvp3PF77/p2Xz+0PHAQ4EBQB1aWFnYV4cxUvN7XJJraHz1CsKwCEpS/qZmVZsvOSkn4cOAxwsCgDq2kU/yE8pp3WlS5+RNDN0nnpDARgN22Hud5fcb3/h8jlbQ6cBRosCgIbwxnrAbalM54fOUy8oAAdltZnd0Z9u/97Li44eCB0GOFQUADScPdYDl0kaFzpPLaMAvK0hkz0k85WM+dFoKABoWH/7YN9R6bJd5aZr5To6dJ5aRAF4S9vN9d1yU/lbzy+euy10GGAsUADQ8D7W6al81H+hxX4964E3owC8mUldMls5NNR675arjh0MnQcYSxQAJMoFPyycJsWfNrdLJbWFzhMaBUDS7jG/yVY8d+msx0OHAaqFAoBE+vsf9xw2NJy+QqYbJb0jdJ5QklwATHpVrntiG75t86Wnvhw6D1BtFAAkWkeHR787uX/h7vXAeUrY34kkFgCTuuS6dXx//31dy+YPh84DhJKoNztgf/7uh72zyh79g6RPKSHrgcQUAFfRzH4SR7pl85LZvwkdB6gFFABgL+d3dk9sVvOVinSDXH8VOs9YSkABeMXcV8Ytzd/avOj4naHDALWEAgC8hY4Oj56cWzjXYy2XtFAN+PelUQsAY37g7TXcGxowFj7U2XtiZNE1kj4pKRM6T6U0VAFwFc3U6ebf2HTJnDWh4wC1jgIAHIQLvv/aBGtuuUqm5ZKODZ3nUDVIAfiTud+pVNNtG5ecuCt0GKBeUACAUWiU9UA9F4CRMf/0mdt/8OiCBaXQeYB6U5dvWkAt+W8/zB0fe+ozJvuEy9tD5zkYdVcAdo/5LYq+9tySWb8PHQeoZxQAoEIu+P5rE6Lm1os98hvkmh06z4GoowLwR3O/K4qjb264YvZrocMAjYACAFRYPa0Har0AuPxxmVbMnL7jx4z5gcqq2TcmoBF8sDP3rshSnzJpqaRJofPsrUYLwKBJD0Syr264dPYzocMAjYoCAFTBRQ/tHF8uti2W+fUuzQmdZ0RtFQB/wc1WtqT9znWL5nSHTgM0OgoAUE3utvDBwnke21LJPyopFTJOLRSAkTH/5vRJD2qRlUNmAZKEAgAEcsH92Xcq1XS1SVdLmhwiQ8AC0Cf3+zylWzcvmbMuwPmBxKMAAIF9oHNHe0aZJS6/TqaTq3nuAAVgs5vuGlJp5dZLTump4nkB7IUCANSQD3X2nhNZ6nrJP6IqXJirVABiSY+4+UrG/EDtoAAANWjhjwaPi+PSUkmfMunwsTrPGBeA18f8phWbL53z7BidA8AoUQCAGvaBu711XHthkUn/KOmUSh9/jArAJjd9pzRUvGPLVadlK3xsABVCAQDqxFisBypYAF4f80d26+bFs34qM6/AMQGMIQoAUGcuuq8wvdQUL5XsWklHHMqxKlAAeuV+v6Wabtm45MQNh5IFQHVRAIA6dcHD3qJC4ePm+qxMp47mGKMtAG7aaLFuH+fDd/3+8lMLozk3gLAoAEADWNhZmOeRL5frYknpA33dQRYAxvxAA6EAAA3kgz8qTEvF8TLJrpF05Nt9/QEWgJxk96RSumXD4tlbKpETQHgUAKABXfCwt0SF/EWxdKPJ3vNWX/c2BeA5uf6dMT/QmCgAQIP7UGfvOWapRSa/WHtNBfZRAF5z6X65/XDzZbMfrWZOANVFAQAS4mOdnhrQwLyyymfKohNMPmlzcati86zFttlT9sTMaa8++eiCBaXQWQEAAACMgf8fPtRMOaWful4AAAAASUVORK5CYII=;rotation=0;" vertex="1" parent="1">
          <mxGeometry x="363" y="330" width="80" height="80" as="geometry" />
        </mxCell>
        <mxCell id="2x5KOI2VVmD8Ad78hVKM-5" value="" style="shape=image;verticalLabelPosition=bottom;labelBackgroundColor=default;verticalAlign=top;aspect=fixed;imageAspect=0;image=data:image/png,iVBORw0KGgoAAAANSUhEUgAAAgAAAAIACAYAAAD0eNT6AAAACXBIWXMAAA7DAAAOwwHHb6hkAAAAGXRFWHRTb2Z0d2FyZQB3d3cuaW5rc2NhcGUub3Jnm+48GgAAIABJREFUeJzt3XuwbmddH/Df8+59EgImQILNORGVSzSWGCXsExGMLYoo2s50ajHqaEHpVHobsbWt9zY4rZUpnSI6ZaS2CtQpTiS1toXaBho7Ugzn7MMlpo4YSwg5e+9zcicXci77ffrHOYTLOXvv97LWep611ufzp5D9/vb7Ytb3fdb6/nYKYPDyS559UZw6/bLIk5dH5Gsi4rkR8fSz/+mnI9InIuL2SPl9kSe3pvWNxwuOC3QglR4AaE++9sBXRsr/MFL6wYh4xmz/VHo4In4zVrbflD507BNtzgeUIwDAAOWXPPuiODn9+Yj8oxFxwYI/5mSk+DeR0884EYDhEQBgYPK1+18Qk3RzRFzV0E+8MyJ/d1o/dnszPw+ogQAAA5IP7n9Z5MnvROSnN/yjH4lJ+u50aOOWhn8uUIgAAAOR1y5/ccTkloj4kpZe4vGI9B1pfeMPWvr5QIcEABiA/A2XPze2J38YEX+u5Zd6IFJ6aTq88Sctvw7QsknpAYDl5BdfeklsT3432r/4R0RcGjm/N3/d5V28FtAiAQB6LK/Fvti+4OaI+NoOX/a5sW9yc37Zc57S4WsCDRMAoM/SgV+JnF5e4JW/KR45+Y7sNiL0lgAAPZXXDvxs5PiRghN8T6xd8YZyrw8sQ3qHHspr+78nIv1WlP//4RyRfzitb7298BzAnEr/ywOYU75u/3UxTbdGxFNLz3JGOhXT9J3pw0ffV3oSYHYCAPRIh3W/eakHQs94BgB6ouO637zUA6FnBADogUJ1v3mpB0KPCADQB+XqfvP6pnjk5NvVA6F+AgBULh888DNl637zyjeoB0L9pHSo2Nm637uif2FdPRAqJwBApeqr+81LPRBqJgBAhSqu+81LPRAq1bdjRRi8yut+81IPhEoJAFCRntT95qUeCBUSAKAm+cAv96TuNy/1QKiMAACVyAcP/EykeF3pOdqTb4i1K24sPQVwhjQOFehx3W9eOVL+oXR46x2lB4GxEwCgsP7X/ealHgg1EACgoAHV/ealHgiFDf24Eao1sLrfvNQDoTABAAoYaN1vXs+NfZN3qwdCGQIAlDDcut+8rlcPhDIEAOjY8Ot+81IPhBKkbujQiOp+81IPhI4JANCR8dX95pVORd5+ZTpy7P2lJ4ExEACgAyOu+81LPRA64hgSWjbyut+81AOhIwIAtEjdbyFn6oFXXnlh6UFgyAQAaJO636Kuj6c//g71QGiPAAAtUfdblnogtEm6hhao+zVGPRBaIgBAw9T9mqYeCG0QAKBB6n6tUQ+EhjmehIao+7Xq0sj5PeqB0BwBABqg7teJ56kHQnMEAGiCul9X1AOhIQIALEndr2vqgdAEKRqWoO5XjHogLEkAgAWp+5WmHgjLEABgAep+1VAPhAU5toQ5qftV5Uw98Nr9X1p6EOgbAQDmkNdiX5y68N2h7leT58Uk3aweCPMRAGAe+cAvR4pvKz0G51APhDkJADAjdb/a5Rvi4BX/tPQU0BfSMsxA3a831ANhRgIA7EHdr2/UA2EWAgDs4mzd74MRcXnpWZiLeiDswXEm7ODz6n4u/v2jHgh7EADgPNT9BkE9EHYhAMD5qPsNhXog7EAAgC+SX3Tgp9X9hkQ9EM5HKobPo+43WOqB8EUEADhL3W/o1APh8wkAEOp+I/JArExekj509OOlB4HSHHMyeup+o3JpbE/fqx4IAgAjp+43SuqBEAIAY6fuN1bXxzMefbt6IGMmADBa6n4jl9P3qgcyZtIvo6Tux1k5UrwmHd58Z+lBoGsCAKOj7scXUg9knAQARkXdjx2oBzI6jj8ZDXU/dqEeyOgIAIyCuh8zUA9kVAQAxkHdj9moBzIaAgCDp+7HXNQDGQkpl0FT92NB6oEMngDAYKn7sRz1QIZNAGCQ8gv3PydW0h+GJ/5Zjnogg+VYlMHJL770klhJ/yVc/FmeeiCDJQAwKOp+tEA9kEESABgWdT/aoR7I4AgADIa6H63K6XvjRfv/SekxoCnSLIOQD+5/VeT0WyHU0i71QAZDAKD31P3oVjoVMf2OtL71v0pPAssQAOg1dT8KUQ+k9xyX0lvqfhSkHkjvCQD0krofFVAPpNcEAPpJ3Y86qAfSWwIAvaPuR1XUA+kpqZVeUfejUuqB9I4AQG+o+1E39UD6RQCgF9T96An1QHrDMSrVU/ejR9QD6Q0BgKqp+9FD6oH0ggBA3dT96Cf1QKonAFAtdT96TT2QykmnVEndj4FQD6RaAgDVUfdjYE5G5FeqB1IbAYCqqPsxUOqBVMfxKtVQ92PA1AOpjgBAFdT9GIHnxSS9Wz2QWggA1EHdj3H4ZvVAaiEAUJy6H6OiHkglpFCKUvdjpNQDKU4AoJh87YGDMYnfD3U/xkk9kKIEAIpQ94OIiLg/ViYvVQ+kBMeudE7dD550mXogpQgAdErdD86hHkgRAgDdUveD8/nmuOTR31APpEsCAJ3Jawd+St0PdpDS98Xa/p8rPQbjIW3SCXU/mIl6IJ0RAGiduh/MRT2QTggAtErdDxaiHkjrHMfSGnU/WNhlsZ3fox5ImwQAWqHuB8vKz1cPpE0CAC058BZ1P1iaeiCtEQBoXF478FMR8bdKzwGDoB5IS6RKGqXuB61QD6RxAgCNUfeDVqkH0igBgEao+0En1ANpjGNalqbuB51RD6QxAgBLUfeDrqkH0gwBgCWp+0EB6oEsTQBgYep+UJB6IEuSHlmIuh9UQT2QhQkAzE3dD6qiHshCBADmou4HVVIPZG6Ob5nZmbrf5HfDxR9qox7I3AQAZvK5ul++pvQswPmoBzIfAYAZqftBD6gHMjMBgD2p+0GPnKkH/mzpMaiflMiu1P2gl9QD2ZMAwI7U/aDX1APZlQDAean7wSCoB7Ijx7qcQ90PBkM9kB0JAHwBdT8YGvVAzk8A4Iuo+8EAqQdyDgGAJ6n7wYCpB/JFpEEiQt0PRiJHjlenI5v/ofQglCcAoO4H46IeSEQIAKOn7gejdH9sr7wkfeSePy09COU47h0xdT8YrctiZfpe9cBxEwBGKq/Fvti+4GZ1vycdixRvLj0ErftnEenPSg9Rh/z8SOmmfPXVF5SehDIEgNE68JbI6eWlpygvnYqIt0Q8cVWcWnlT6Wlo2SS9LWLjz0fEj0XEI6XHKS7FX4wL73+7euA4CQAjpO53Vsrvi8n02rS++fq0/uDD8dX3bEXE6dJj0ZrteNrGZlqPU2l985diuvo1keOdEZFLD1aUeuBoSX0jo+4XEZHvjIifTutbN53zn6wduDsivrz7mejA0bS++ewv/j/m6/ZfF9PJL0fkF5cYqhLqgSM04ovA+ORrDxyMnN4e4/3cH4uU3hAXP+Wa8138IyIix6c6nonOpPN+tunQ1qFY33hppPyaiDje8VC1SJHi3+W1/d9SehC6M9YLwejkF+5/Tkziv8Y4u/45It0UkV6QDm/cmG6964kd/5sp3dPhXHQq7/jZpohpOrz1jti+8KqI/MaIONnhYLW4ICLdlF/47K8qPQjdEABGIH/d5U8bbd0vx6HI05em9Y0b0vrG3TP8AwLAcB3d67+QPnLXQ2l96ycjTdci0vu7GKoyl8XK9u/kq7/0S0oPQvsEgDFYnbx1hHW/rcjptXFk8xvTkWN/OPM/5RbAgOWZP9t0+NgfpfWNl0eKV0XEXe3NVKUXxEWrby09BO0TAAYuH9z/XZHir5eeo0MnI9KbYvXEVenIxq+niOlc//TECcBg5cncn206vPnuuGDlBZHzjRHxePNDVSrHD+aD+7+z9Bi0SwAYupx+vvQInclxS0zyi9L6xj9Ktz3w6YV+xlQAGKyVxU530gfv+Uw6svWGOL3y1aOqDeb0C/YDDJsAMGB57Ypvj4i10nO0L98ZkW9IRzZfkQ5t3bHUj9q3KgAM11K3d9JH7zmajmy+Oib5WyLyx5oaqmIvjGu/7FtLD0F7BIAhy/nHSo/QskcipZ+IJy67esda37y+4uhmWAY0RNsx3dhq4gelQ1u/HxdvrUXOfy8iHmjiZ1ZrMvh/h4ya452ByldeeWE8/bEHI+Ki0rO0IEek345J/Hg6tNH4Q3uWAQ3SeZcALStf8xXPjAtO3RgRfzciVpr++RV4PJ649JnpjjvGWIscPCcAQ/XMR78xhnnxX49Juj6tb9zQxsU/IiKS5wCGp539Dun2ux9M65uvjxzXRMT/aOM1CntqPPXBg6WHoB0CwFBN47rSIzRsK3L+4VjfvC4d2vg/rb5SnqgCDk1uN9SlI5t/HOubr4yUvj+WfNagOtM8tH+XcJYAMFjp0tITNOPsX+tbPXFVOrL1G6mTJ7CdAAzOpP2LcorI6fDGuyLS10RKb4iInTdO9klKzyw9Au0QAIYqpUtKj7C0HLfEdPrCtL75+oVrfYtIIQAMTcsnAJ8vrW88ng5v3Birk686Wxvsufz00hPQDgFgqPJ0vgU4dfl4pPyX0pHNV6QPb/3fzl+9w4sFHVlgCdCy0m1H7zlTG0yviIju/3fclOlI9h6MkAAwXDPsva/Omb/W9/DTvi4d3npPsSny7Ctj6YkFlwA1IR3auCUu3vz6yPG6iLiv1BwLS+mu0iPQDgFguD5ZeoA5TCPlX4/J6SvT4Y0b0513nig6jWVAw3M67/mHgNqUbo3T6cjm2+LU9OqI+LWYd0V1SWl0fwthNASAoZru+0D0YWVpisMxnVyfDm+9Nh26t5FFLUuzDGhotmOyuVF6iIiI9LFjx9P65t+MlA5GxB+UnmcG01g5fVvpIWiHRUADlg8eOBQ5Ku3wps3I+cY4svlrc//Bng7ktQOfiojGF8dQRCtLgJaVI1Ks7X9VRHpTRHxF6Xl28IG0vnl96SFohxOAIcvp3aVHOI8TEfmN8ZSTV6Ujm2+r8eIfERHJcwADUvT4fycpIqf1rZviidNXR+Q3RkTZW1/nd3PpAWiPADBon3lrRDxUeoon5bglclyb1rd+Mn3gvkdKj7OrAk+N05qqH4hNd9z7aFrf+snIK18bkZr5mxbNeCCecurflh6C9ggAA5bWH3w4In6l9BwR8acR+S+nI5uvSEc2/7j0MLNxAjAYPdnrkI7cc2da37ghppNvi4jl/qplM/519UGdpQgAQ3dq+osR8fFCr/7ZWt81aX3rvxWaYVFVHhuzgJ7tdUgfPvq+iM1rI+LHItLDZabId8YTp99c5rXpigAwcOljxx6LafzA2ZW6XcmR452xuv38Kmp9C3ECMBg9vJ2T1uNUWt/8pVhJz4+It0S3z8qcjhQ/kO6499EOX5MCBIARSB/ePBwxfX10UQtM+YMxjW9IRzZfnW47fqz112vLdKV3Fw12MOnHLYDzSR86en9a33x9xPSlEfGhDl4yR46/kw5vdfFaFCYAjERa33prRPz9Fl9hM3K8Lg5vXX8mcPTcar+OjdlF7v9f50vrx26L9c1vjJRfExFt7cvIkdKPpiObHvwbCQFgRNL65i9FTq+NiMcb/LEnIuIX44lTX111rW9eT9vYjIjt0mOwtGnExmbpIZpw5q8Nbr0jVk9cFZH+VcO39R6LlH8oHd6o4aFhOmIR0Ajl6/ZfHdPJf4zI1yz3g/LvRpr+g7R+/M8aGq0qlgENQd5I61tfVnqKNuSDV1wVkd8cOV655I/6aOT4/v40dGiKE4ARSoe27ojnbVwbkX8oIj4x5z+eI9L7I8dfSEe2/spQL/5nJLcBem+4n2E6vPEn6fDmd8Z08m2R4n8v8BP+LFK8Op63uebiP05OAEYur8W+yAe+NSL+aqT4roj48nP/W+lU5PyRSOm9kfO7xvIvi7x24KaIeFXpOVhCipvT4c2/VnqMLuS1y6+JPPneSPHKiPj6iFg9z3/t7oh4T0T6T3HxxvvTrf7mxZid738gjEhaj1MRm78XEb8XEZFf8uyL4sT2cyLiWRErD0eaPhQPP/VYP6t8S8rxKRG553J/GwDzSuvHbo+I2yPiZ/OVV14YFz+2P2LyjEjTSyKle+OCySfTB+/5TOk5qYcAwBc4+y+IUXzD31NPNsixm1z1GuC2nA3sn4x+/VlwOuYZANhJzzbIcR49XAIEXREAYCd5pff98dHr8RIgaJsAADuxDKj/BrAECNoiAMBOnrOxEZYB9dlglgBBGwQA2EG6KbajvbWrtC5vnWm5AOcjAMCukiPk3pr47GAXAgDsynMAvaXFAbsSAGA3HiLrL3scYFcCAOwm5aOlR2BRTgBgNwIA7MYJQH9lzwDAbgQA2M2KTXK9ZQkQ7EoAgN1MXUR6y+kN7EoAgN1cbBlQT1kCBHsQAGAXZ/9eumVAvWMJEOxFAIA9JbcBesdnBnsRAGBP2b3kvnH/H/YkAMBeLJTpH58Z7EkAgL1YKdtDPjPYiwAAe8l2AfRO8pnBXgQA2MuK+8k95DODPQgAsBfLgPpn2y0A2IsAAHuxDKhvpnHyUkuAYA8CAOzhzDKgfKz0HMwqb6U77jhZegqonQAAM/GX5frDEiCYhQAAs1AF7A9LgGAmAgDMwmKZ/vBZwUwEAJiJE4D+8FnBLAQAmEX2DEBvWAIEMxEAYBYTx8o9IqzBDAQAmIXFMv3hs4KZCAAwi8mmZUD9YAkQzEgAgBmk9ThlGVAfpGOWAMFsBACYmQUz9cvu/8OMBACYlQUz9bMDAGYmAMCsXFzqJ6TBzAQAmJmny6uX89HSI0BfCAAwKwtm6jexsAlmJQDA7FxcapfdpoFZCQAwKwtm6jfVAoBZCQAwK8uAamcJEMxBAIAZnVkGlI6XnoOdWAIE8xAAYC6OmOvls4F5CAAwD7sA6uWzgbkIADAPT5nXy2cDcxEAYB5ZE6BaPhuYiwAA87Bopl4+G5iLAADzcMxcL58NzEUAgHlsT11kauWzgbkIADCPla2jETEtPQbnmMapyzZKDwF9IgDAHM4uAzpWeg6+mCVAMC8BAOblafP6+ExgbgIAzGvirwJWx2cCcxMAYF6eNq+PzwTmJgDAvBw318dnAnMTAGBek4mLTW18JjA3AQDmld1vro7PBOYmAMC8LJypj88E5iYAwLwsA6qNJUCwAAEA5nRmGVAcLz0Hn2UJECxCAIBFuOdcDw0AWIgAAItIeufV8FnAQgQAWIhvnRVxGgMLEABgEUnvvBpuAcBCBABYjG+dtbAECBYiAMAipr51VsNnAQsRAGARqxbPVGOancbAAgQAWMRjz7IMqA6WAMGCBABYwNnFM5YBlXfcEiBYjAAAi9I/L89CJliYAACLcvEpTwiDhQkAsDBPn1dACIMFCQCwKMuAykvpaOkRoK8EAFhUdvxcAScAsCABABZlAU15PgNYmAAAi9o39e2zNEuAYGECACzKMqDSLAGCJQgAsKCzC2juLT3HiFkCBEsQAGAZyUNoxdgBAEsRAGAZmgDlWMQESxEAYBnZU+jleO9hGQIALMMyoHK897AUAQCW4xi6FLdfYCkCACzDIppysh0AsAwBAJaxOhUASvHew1IEAFjGgxcfjYhceowRyvHAxZYAwRIEAFhCuvPOExFxvPQcI3Ts7HsPLEgAgOU5iu6aJUCwNAEAludhtK5ZAgRLEwBgWZYBFeA9h2UJALAsC2m65z2HpQkAsCwnAN2zBAiWJgDAslYEgM5ZAgRLEwBgaS5GnbMECJYmAMCyLAPqmiVA0AABAJZ0diHNvaXnGJHjlgDB8gQAaIbbAF1J3mtoggAAzXBPuisaANAIAQCakJKLUmc8dAlNEACgCb6VdscSIGiEAABN0EvvjrAFjRAAoAmWAXVn6r2GJggA0ISpxTSd2Td12gINEACgCQ9fck9YBtQFS4CgIQIANMAyoM5YAgQNEQCgOW4DtM0SIGiMAABN8WeB26cBAI0RAKApk4lvp20TsqAxAgA0xbfT9lkCBI0RAKApvp12wSkLNEQAgKZMBIDWWQIEjREAoCnZgprWrVq4BE0RAKAplgG1LceDFx8tPQQMhQAADTm7oOa+0nMMmCVA0CABAJrlNkB7HP9DgwQAaJImQJuEK2iQAABN0lNvj3AFjRIAoFEuUq0RrqBRAgA0KTumbo0TAGiUAABNsgyoPcIVNEoAgCZNVwWAtlgCBI0SAKBJl6xaBtQOS4CgYQIANCjdetcTYRlQGywBgoYJANA8R9XN855CwwQAaFryIGALvKfQMAEAmpYnnlZvWs7eU2iYAACNcwLQOEuAoHECADQtOa5unCVA0DgBAJrmYtU8S4CgcQIANC2vulg1zRIgaJwAAE2zDKhplgBBCwQAaNjZZUD3l55jQO61BAiaJwBAO9wGaI73ElogAEAbLANqkvcSWiAAQBuy3npjLAGCVggA0AZVwOakiQcAoQUCALRh4r51Y5wAQCsEAGiDE4DmrHgvoQ0CALRhe9VFqzFOAKANAgC04RmrnwrLgJqQ42kXbZQeAoYolR4AhiqvHbg3Ip5Veo6eO57WNy8vPQQMkRMAaI/bAMvzHkJLBABoTXLxWp77/9ASAQDa4+K1rCREQVsEAGiLKuDyslsA0BYBANoyEQCWZgkQtEYAgLZMBYClWQIErREAoC3Tfb69Lms6FQCgJQIAtOUi96+XlOPip/pDQNASi4CgRXntwH0RcVnpOXrKEiBokRMAaJfbAItzggItEgCgVXrsSxCeoEUCALTKU+wLswQIWiUAQJuSY+yFWQIErRIAoE22AS7OewetEgCgTTbZLW7FewdtEgCgTaurvsUuyhIgaJUAAG3adoy9IEuAoGUCALQorW88HhH3l56jh+5Nt971ROkhYMgEAGifU4D5ec+gZQIAtE6ffW4aANA6AQBa52n2uU0m3jNomQAAbbMMaH6WAEHrBABom+Ps+XnPoHUCALRtuuJiNq+JAABtEwCgbfv8Vbu55an3DFomAEDbLAOalyVA0AEBAFp2dhnQA6Xn6JH7LAGC9gkA0A1H2rPzXkEHBADohGVAM9MAgE4IANAFF7XZpYn3CjogAEAXLAOag7AEXRAAoAtOAGaXPQMAXRAAoAt5xUVtVpYAQScEAOjCiovazCwBgk4IANAFx9qzsgQIOiIAQAcsA5qZJUDQEQEAOuM2wAy8R9ARAQA6YxnQnnJ2qwQ6IgBAVzwHsDdLgKAzAgB0xTKgGbhNAl0RAKArlgHtTUiCzggA0JUVx9t78wwAdEUAgK54BmBv01UhCToiAEBXTm67uO0ux4VhCRB0RACAjqSPHXssIh4sPUfF7ksfvOczpYeAsRAAoFPuce/CCQl0SACATlkGtKOkJQFdEgCgS2puO8sTpyPQIQEAumQXwC68N9AlAQC6lO0C2JHTEeiUAABdWrELYGcekIQuCQDQpalvuTuyBAg6JQBAl05t+5Z7fpYAQccEAOiQZUA7ut8SIOiWAACdswvgPJyMQMcEAOiaKuC5LAGCzgkA0LWJb7vnsAQIOicAQNecAJwrZw8AQscEAOiaZUDncioCnRMAoGsTuwDO4VQEOicAQNeyb7vnyKveE+iYAABdswzoXJYAQecEAOjY2WVAD5WeoyL3WQIE3RMAoAz3vD/HiQgUIABACZ4D+BxLgKAIAQBKSE4AnqQWCUUIAFCEb71PUgGEIgQAKCH51vskS4CgCAEAynDR+ywnAFCEAAAlTF30nrS96r2AAgQAKOHEaScAn7UytQQIChAAoIB0x72PhmVAERH3pfWNx0sPAWMkAEA5jr69B1CMAACl2AUQkbJbIVCIAACl2AZoCRAUJABAMZoAKoBQjgAApVgGFDERAKAUAQBKyZ4BcBsEyhEAoJTsAThLgKAcAQBKueiUi58lQFCMAACFpA/c90hEerj0HAVZAgQFCQBQ1Kgfghvz7w7FCQBQUhrzQ3BJAICCBAAoadxNgBGHHyhPAICSxrwIZ8y/O1RAAICSJiNeBmQJEBQlAEBJY16EMxUAoCQBAEqaTsd7EZzuG2/4gQoIAFDSU0+P9yJoCRAUJQBAQSNeBnS/JUBQlgAAxY3yXvh4Tz6gEgIAlDfCAGAJEJQmAEB5Y/w2PMbfGaoiAEBpKY3vYbiUx/c7Q2UEAChvhN+G8wh/Z6iLAACljXEhzhh/Z6iMAACl5RF+G7YECIoTAKC0MS4DsgQIihMAoLAzy4Di06Xn6JAlQFABAQDqMKZ74mP6XaFaAgDUYUS3AdKIfleolwAAdRjRt2INAKiBAAA1SCNajZvGFHagXgIA1CCP6KKYnQBADQQAqMGYdgGM6XeFigkAUIOVEX0rXl0dz+8KFRMAoAYXnL679Aid2R5R2IGKCQBQgREtA7IECCohAEA9xvDNeAy/I/SCAAD1GMHF0RIgqIUAAPUYwcXR/X+ohQAAtRjDMiBLgKAaAgDUYgzLgCwBgmoIAFCLMVwcLQGCaggAUIuVEVwcLQGCaggAUIvpieFfHC0BgmoIAFCJtP7gwxHxSOk5WvSAJUBQDwEA6jLkb8jDv8UBPSIAQF0GfJEcQc0RekQAgJoMugkwgoccoUcEAKjJZDLci6QlQFAVAQBqMs1HS4/QmkGfbkD/CABQl+GeAExXBACoiAAANZlMh3uR3DfgcAM9JABATfLJ4V4knzg93Nsb0EMCAFRkwMuAHkgfO/ZY6SGAzxEAoD5DvA0w3JMN6CkBAOozwABgCRDURgCA2gzxT+aqAEJ1BACoTZoM72JpCRBURwCA2gzy2/IATzWg5wQAqM1kgAHAEiCojgAA1Rngt+WVAYYa6DkBAGpz+qLhXSw/c8oSIKiMAACVSR+566EY1jKgB9Id9z5aegjgCwkAUKcBfWN2/A81EgCgTgN6DmAyoN8FhkMAgBqlAX1rHmStEfpPAIAa5QF9a7YECKokAECNch7OMwBOAKBKAgDUaDKgXQB5ZTi/CwyIAAA1GtK3ZkuAoEoCANTo5IXDuWhaAgRVEgCgQun2ux+MiCEsz7EECColAEC9BnAK4PgfaiUAQK3yEAJAGsDvAMMkAECjwasKAAADm0lEQVSthtAEyEPaaAjDIgBArfKk/9+eLQGCagkAUKshVAGH8DvAQAkAUKvJAC6elgBBtQQAqFUewDMAlgBBtQQAqNUQlgFZAgTVEgCgUgNYBvSgJUBQLwEA6tbjb9ADuIUBAyYAQM163aO3BAhqJgBAzVKPL6K9Di8wfAIA1K2/F9GUe3z7AoZPAICa9fki6gQAqiYAQNV6/CDdygBWGcOACQBQs+lqfy+iTgCgagIA1OzCHv8xHUuAoGoCAFQsffCeB6Kfy4AsAYLKCQBQvx5+k+5xfRFGQgCA2qU+/kGdHj+8CCMhAEDt8qR/F9PU42cXYCQEAKheD08Acg9nhpERAKB2ffw2rQII1RMAoHZ9/DZtCRBUTwCA2uXV/n2bnvbw1AJGRgCA2vVxGdATp/o3M4yMAACVO7sM6LHSc8zBEiDoAQEA+qFHy4AsAYI+EACgD1KfFuv0aVYYLwEA+iD36Kn6PtYWYYQEAOiFHn2r7mNtEUZIAIB+6M8zAH06rYAREwCgF3p0ArBiCyD0gQAAfTCNT5QeYWbT0/2ZFUZMAIA+OHnZnRFxuvQYMzgRzzt+V+khgL0JANAD6Y47TkbEx0vPMYM/SjfFdukhgL0JANAb6fdLT7C3dGvpCYDZCADQFzn/z9Ij7CnnW0qPAMxGAIC+uOTC90bEQ6XH2MXxSJvvKz0EMBsBAHoi3XrXExHxrtJz7Cy9M63HqdJTALMRAKBPJtN/GVW2AdKpiHhL6SmA2QkA0CPp0LH/FxFvLz3HOVK8La1v3F16DGB2AgD0zcrkJyLivtJjfJ5jcWL150oPAcxHAICeSR86en+k/LdLz3FWjpRel26/+8HSgwDzEQCgh9Lhrd+OFG8uPUek+Bfp8MZ/Lj0GML9UegBgMTliEi/a/5uR0vcVGSDlX4/DW38jReQirw8sxQkA9FSKmMbzt34wcvxq5y+e87+PL9n6ERd/6C8nANBzOSLF2v4fj5j8QkTe1/LLnYhI/zitb6j8Qc8JADAQ+doDB2MSvxoRL2rnFdJtMU2vSx8++tF2fj7QJQEABiR/T6zEJ654TeT46Yj8/IZ+7J9Ein8ehzd/M0VMG/qZQGECAAxQflmsxqNXfFfk/NqI+PaIuGjOH/FYRLz37IN+/92FH4ZHAICByy959kVxanp9RP6GyOnrI/JXRsSzIuKZceYhvoci0vFI009GTh+NPL0tPn3xB9Kdd54oOznQpv8PK6Hf9mixy+0AAAAASUVORK5CYII=;rotation=25;" vertex="1" parent="1">
          <mxGeometry x="334.15" y="403.27" width="56" height="56" as="geometry" />
        </mxCell>
        <mxCell id="2x5KOI2VVmD8Ad78hVKM-7" value="" style="shape=image;verticalLabelPosition=bottom;labelBackgroundColor=default;verticalAlign=top;aspect=fixed;imageAspect=0;image=data:image/png,iVBORw0KGgoAAAANSUhEUgAAAgAAAAIACAYAAAD0eNT6AAAACXBIWXMAAA7DAAAOwwHHb6hkAAAAGXRFWHRTb2Z0d2FyZQB3d3cuaW5rc2NhcGUub3Jnm+48GgAAIABJREFUeJzt3X+wZ2ddH/DP893dJCsYJRupMyqCTI0Fo8WQ7CbGFsUf4HSmU4tRR4tIp+CP7Aaqrb+wXZzWqk0nyd4l1K2tBNopTiS1tiX9EejaAXfvJjujIHVEKPIjkIQkJOTn7t77ffoHFwibvfd+f5xznuec83rN8A/J3u/zPQf2eX+f831/bgpg8K58fd6dz8RLcoqXRsSlEfG8iPiKjX/82UjxkZzj/SnFu9aejKMnj6THy60W6EIqvQCgPVf9TP766SR+Lkf8WER85Yx/7OFI8R/yNK4/cTh9pM31AeUIADBAV74+756eiV+NFAci4rwFf8zpiLh57VT8shMBGB4BAAZm7/78goi4LSIuaehHfmiS4weOHU7vb+jnARUQAGBA9l2bX5JT/H588fl+Ux5JET9wfCXd0fDPBQoRAGAg9l2X9+Zp3BERz2zpJR6PSXzf6k3pPS39fKBDAgAMwBXX5uelFMcj4tktv9SD65O46q6b0p+3/DpAyyalFwAsZ+/+fOEkxR9E+5t/RMRFO6Zx+1U/mbt4LaBFAgD02GWvybtSxG054ps7fNnnre+K217yqnxBh68JNEwAgB7beV4czhEvLfDS3/7khfHWiOwxIvSUAAA9tW9/fkOkeE2p1885fnDvgXhjqdcHliO9Qw9dcW3+wZTid6P8/4dzTvETJw6lWwqvA5hT6b88gDldfl2+fDKNoxHxZaXXsuHMNMXL7zyU3lV6IcDsBADokQ7rfvNSD4Se8R0A6ImO637zUg+EnhEAoAcK1f3mpR4IPSIAQA8UrPvN69sf//K4RT0Q6icAQOX2Hci/XLLuN68UcY16INRPSoeKbdT93h79C+vqgVA5AQAqVWHdb17qgVAxAQAqVHHdb17qgVCpvh0rwuBVXvebl3ogVEoAgIr0pO43L/VAqJAAABXZeX6s9KTuNy/1QKiMAACV2Hcg/3JEvLb0OtqSIq7Zuz8Oll4H8DnSOFSgx3W/eeUc8aoTK+mtpRcCYycAQGEDqPvNSz0QKiAAQEEDqvvNSz0QChv6cSNUa2B1v3mpB0JhAgAUMNC637yet74r3qEeCGUIAFDAgOt+87paPRDKEACgY0Ov+81LPRDKkLqhQyOq+81LPRA6JgBAR0ZY95vXmZzjZScOp3eXXgiMgQAAHRhx3W9e6oHQEceQ0LKR1/3mpR4IHREAoEXqfgt53vqueMfL9+fzSy8EhkwAgBap+y3s6gci3qoeCO0RAKAl6n7LUQ+EdknX0AJ1v8aoB0JLBABomLpf49QDoQUCADRI3a816oHQMMeT0BB1v1ZdtGM93qkeCM0RAKAB6n4dSPEN6oHQHAEAGqDu1xn1QGiIAABLUvfrlnogNEOKhiWo+xWjHghLEgBgQep+xakHwhIEAFiAul811ANhQY4tYU7qflW5aMd6vPM79uevKr0Q6BsBAOZw2Wvyroh4h7pfRVJ8w+mI29QDYT4CAMxh5/mxEhHfXXodPI16IMxJAIAZqfvVLUVcs+9A/NPS64C+kJZhBup+vaEeCDMSAGAb6n69ox4IMxAAYAsbdb9jEfFXSq+FuagHwjYcZ8ImnlL3s/n3j3ogbEMAgHNQ9xsA9UDYkgAA56DuNxjqgbAJAQDOcsX+/Euh7jcY6oFwblIxPIW632CpB8JZBADYoO43eOqB8BQCAIS634g8mKdx5Yk3pQ+WXgiU5piT0VP3G5WLUorb1QNBAGDk1P1GSD0QIkIAYOTU/Ubr6gcjblEPZMwEAEZL3W/0fkg9kDGTfhkldT825Ejx46uH0ttKLwS6JgAwOup+nEU9kFESABgVdT82oR7I6Dj+ZDTU/diCeiCjIwAwCup+bEs9kJERABgFdT9mpB7IaAgADJ66H3NSD2QUpFwGTd2PBakHMngCAIOl7seS1AMZNAGAQdr3uvzcvB7Hwzf+WY56IIPlWJTB2bs/Xxjr8V/C5s/y1AMZLAGAQVH3o3HqgQyUAMCgqPvREvVABkcAYDDU/WjZD11xbfyT0ouApkizDMLe/fkVEfG7IdTSLvVABkMAoPfU/ejYmUjxfauH0v8uvRBYhgBAr6n7UYh6IL3nuJTeUvejIPVAek8AoJfU/ShOPZCeEwDoJXU/KqEeSG8JAPSOuh+VUQ+kl6RWekXdj0qpB9I7AgC9oe5H5dQD6RUBgF5Q96Mn1APpDceoVE/djx5RD6Q3BACqpu5H76gH0hMCAFVT96On1AOpngBAtdT96Dn1QKomnVIldT8GQj2QagkAVEfdj4E5HSleph5IbQQAqqLux0CpB1Idx6tUQ92PAVMPpDoCAFVQ92PwPlcPfId6ILUQAKiCuh8j8R3qgdRCAKA4dT9GRj2QKkihFKXux0ipB1KcAEAxV1ybX5xS/GGo+zFO6oEUJQBQhLofRETEA3kaV6kHUoJjVzqn7gdfsEc9kFIEADql7gdnUQ+kEAGATqn7wTl9x4M53qIeSJcEADqz90D+xVD3g3NL8cN798evlF4G4yFt0gl1P5iJeiCdEQBonbofzEU9kE4IALRK3Q8Woh5I6xzH0hp1P1jYnpjEO9UDaZMAQCvU/WA5KeL56oG0SQCgFbsuiEOh7gfLUg+kNQIAjdt7IP9izvGTpdcBg6AeSEukShql7getUA+kcQIAjVH3g1apB9IoAYBGqPtBJ9QDaYxjWpam7gedUQ+kMQIAS1H3g26pB9IUAYClqPtBEeqBLE0AYGHqflCQeiBLkh5ZiLofVEE9kIUJAMxN3Q+qoh7IQgQA5qLuB1VSD2Rujm+Z2d79+cK8Hn8QNn+ojXogcxMAmMnn634RcWnptQBPpx7IvAQAZqLuB72gHsjMBAC2pe4HPZLih/deG28ovQzqJyWyJXU/6CX1QLYlALApdT/oNfVAtiQAcE7qfjAI6oFsyrEuT6PuB4OhHsimBAC+hLofDIt6IJsRAPgS6n4wSOqBPI0AwBeo+8GAqQdyFmmQiFD3g5HIkeOVq4fTvy+9EMoTAFD3g3FRDyQiBIDRU/eDUXogUly5eij9RemFUI7j3hFT94PR2pNz3K4eOG4CwEhd9pq8K0XcFup+n3dvRNxYehG07p/liA+XXkQNUsTzT0Xc+sKD+bzSa6EMAWCkdl0Qh3LES0uvowJnIuLQ2qm4ZLIzri+9GNo1XY8j66fir0WO10XEI6XXU1qK+JvPvD9uUQ8cJwFghNT9PidFvGs6jRetrqTrTh5JD3/tJ+KeiFgrvS5as/6MZ8enTh5JZ1YPp5t25vimiHhbROTSCytKPXC0pL6RUfeLiIgP5Ry/dOJwuvXsf7B3f/5YRHxdgTXRthx3rx5OX3v2f335dfnyyXqsRIq9JZZVCfXAERrzJjA6V1ybXxwRt8R47/tjKcUbdz8Sl55r84+IyBEf73pRdCSd+97eeVO6c/XiuCpH/HhE3NfxqmqRIsW/3Xsgf2fphdCdsW4Eo7Pvdfm5KcV/jXF2/XNKcevaJF5w/FA6ePQt6ckt/t1PdLYqurb5vT2YpidW0ltP7YhLcsRvRMTp7pZVjfMix617D+S/WnohdEMAGIFv+bn8jLHW/VLEnRFx1fFD6ZqTN6WPzfBHBIChSnH3dv/KH9+YHjqxkn5hPcVlEfHuDlZVmz2R4/df8tP5maUXQvsEgBHYfSreHOOr+90TOV59fE/sW11Jx2f9Q8kjgOHKs9/buw6lP11dSS+NHK+IiL9sb1FVesETO+PNpRdB+wSAgdt7IH9/RPy90uvo0OnIcX1EXLJ6OP1OHEzTOf+8E4CBSnn+e7t6OL1jsjNekHMcjIjHm19VpXL82L5r88tLL4N2CQBDl+NXSy+hQ3dMp/Ftq4fTP1pdSZ9d8GcIAAOVJoud7hy7IT1x4nB642RnfGOMqDaYI37NfIBhEwAGbO/+/L0RcVnpdXTgQznHNasr6XvufFP6wJI/SwAYqLW15R7vHLsh3b26kl45ifjOiHhfQ8uqV4q/fvmB+K7Sy6A9AsCwva70Alr2SM7x84/uiRduVuub13PuiU+FYUBDtD5di3ua+EHHVtIf7t4Tl0WKayPiwSZ+Zq12DP/vkFFzvDNQL9+fz38w4jMRsbv0WlqQU4rfW1+Ln73z5tT4l/YMAxqgTYYALevqn8rPOrMzDkbEz0TEjqZ/fgUef3RPPOsDB9MYa5GD5wRgoB6K2BfD3PxPTlJcffxQuqaNzX+DxwDD08o9fc+b02dWV9J1aUdcGhH/s43XKOzLLnwwXlx6EbRDABioaYrLS6+hYfekiJ9YXYnLjx1Kf9TmC5kGOECTdkPd8RvTn62uxMsixY/EwP73M50O7u8SNggAQzWNi0ovoSFnIuJQRFxyfCW9JSJ18Q1sJwBDM8cMgMWlvHoovX3tVHxTSvHGiNhq4mRvpEk8q/QaaMfO0gugJSkuLL2EBtwREdetrqT/2+mr5viEb8cMTmeh7uSR9HhEHNy7P/92RPxa9HwOR87xFaXXQDsEgIHKOaapv5vYByPF61cPpXcWen0nAAOzyBCgZa2upE9ExCv37c9vzRE3RcQLul5DE1Iax9yDMfIIYKDSJGaZe1+bx1KKN14U8S0FN/9Im/zWOPpr0SFATTi+ku7YvSe+NVK8NiLuL7WOheXRjUIeDScAA5Wn8dEenQBMI8Ut07X4pTtvTo10tZfkBGBg0vr2vwioTUcPprWIOHLVT+bfX9sV/zxFvDr68gFMABisfvwPkLntinhv9GNk6V15GlevHkqvrmTzNwxoeNZPnYlPll5ERMQf/et034mV9A8mES+OiPeUXs8MpnlHrJZeBO3oz2dE5rZ3f74zotoO76cixcHVi+K3F/iFPa3buz9/PCIaHxxDAS0NAVpeTldcG6+YpLg+Rzyn9Go28d7VlXR16UXQDicAQ5bjHaWXcLYccSpH/MbO3XHJ6qF0pMbNf4PvAQxFKnv8v7mUTxxOt16wHi/MEb+RI06VXtHZUorbSq+B9ggAA7Z2Ot4cEQ+VXsdT3DHZES86sZJ+4b2/mR4pvZitpOR7AANS9Rdij96cHj2xkn5hx3p8c0rRyO+0aMiDOy6If1N6EbRHABiwk0fSwxFxuPQ6IuIvcsTfWl1J33P8xvRnpRczi2kng2PoSC/C3LGb04eOH0rXTFN8d0Qs+1stl5Yibqg9qLMcAWDgnjg/fj0iPljo5T9f67v0xEr6b4XWsJBJtcfGLKAXAeDz7jyU3rV2Kl4UOV4XEQ8XWsaHLliPGwu9Nh0RAAbufdenx3KOH43PjdTtSo6It8Uknn/8UDp4+0qq7tnmdqZTJwBDUWII0LJOHklnVg+nm/I0nh+fG4Xd5Xdl1iYRP3r05vRoh69JAQLACJw4nO5KEddFN7XAYznHFasr6ZWrN6V7O3i9dvRw02BTvb2XJ96UHlhdSdelSVwVESc6eMmcIn762Erq4rUoTAAYieMr6c2R4/UtvsSnIsVrV/fE1ScOp7tafJ1OZAFgMM7s6P9pzvGb0urqSuzLET8eEW3Ny8g54sDxleSLfyMhAIzI6uF0U+R4dUQ83tTPzBGnIsWv716Pb6y81jeXZzw7PhUR66XXwdKm8UR8qvQimpHyiZX01oi4JCL+VTT7WO+xHPGqEyuphi8N0xGDgEbo8p/JL5xM4j9GxKVL/qg/2BHxD/9oJX24iXXVxjCgQfjk6kr6mtKLaMOLr8uXTKZxY4p42ZI/6k/SjviRvjR0aI4TgBG6803pA8+5J16UU7wqIj4y5x/PEfHuHPE3VlfS3x7q5r/BY4D+G+w9vOum9OcnVtLLpym+O3L8n3n/fI74cKR45XPuicts/uPkBGDkLntN3rXjvPiulOLvRMT3R8TXneNfO5Mi/jhH3J52xNvH8pfF3v351oh4Rel1sJTbVlfS3y29iC5ceW2+dD3ih1KKl0XEt8Y5ftlbivhYpHhnzvGfdu+Jd2/8kiJGym8DHLmTR9KZiPgfG/+JK1+fd+ccz52ux8VpEg+vRTz07Gnc28cq37JSio/nPvw6JbYy2BOAsx07nN4fEe+PiDe8fH8+/+FpfPXaJL4yIi7ckePTsSs+euyG9EThZVIRAYAvsfEXxCg+4c9gNJvHgFU9BrgtG4H9oxv/gXPyHQDYnADQc30cAgRdEQBgE9P1/vfHEQBgMwIAbMIwoP4bwhAgaIsAAJt47qfjk2EYUJ8NaAgQNE8AgE3cemtaj9za2FXad89GywU4BwEAtpIcIfdWdu9gKwIAbM33APpq4t7BVgQA2EJyAtBnAgBsQQCALeQcd5deAwsTAGALAgBswQlAf6WpewdbEQBgC8mnyD5z72ALAgBs4XSyifSVIUCwNQEAtvDlzzIMqKcMAYJtCACwhaMH05phQL1kCBBsQwCA7XkM0D/uGWxDAIDtaAL0j3sG2xIAYHs+TfaPewbbEABgezaT/nHPYBsCAGwjZZtJD7lnsA0BALaRJp4n940pgLA9AQC2YRhQ/0yc2sC2BADYhmFAvTN9+KsMAYLtCACwjaMH01pE3Ft6Hczsng8cTKdLLwJqJwDALLJnyj3i+B9mIADALCY2ld4wBAhmIgDAbASA/nCvYAYCAMzGptIf7hXMQACAGeiV94oAADMQAGA2NpWeENZgNgIAzMBgmf5wr2A2AgDM4NQZw4B6whAgmJEAADM4eSSdCcOA+uBeQ4BgNgIAzM7Rcv08/4cZCQAwKwNm+kBIgxkJADA7m0vthDSYmQAAsxMAKpdz3F16DdAXAgDMTgCoXHICADMTAGBGBsz0QBLSYFYCAMzIgJn67VgT0mBWAgDMyDCg6hkCBHMQAGBGG8OA7iu9DjZlCBDMQQCA+Thirpd7A3MQAGA+vgdQL/cG5iAAwHxsMvVyb2AOAgDMIdtkquXewHwEAJiDQTP1cm9gPgIAzMOgmXq5NzAXAQDmkGwy1XJvYD4CAMzhzONxd0RMS6+Dp5k+8pXxydKLgD4RAGAOG8OA7i29Dp7GECCYkwAAc0q+bV4d9wTmJwDAnLKJc9VxT2B+AgDMz6fN+rgnMCcBAOZk4Ex93BOYnwAA87PZ1Mc9gTkJADCnNPG8uTbuCcxPAIA5GThTH/cE5icAwJwMA6qOIUCwAAEA5rQxDOi+0uvgCwwBggUIALCApHdeDUOAYDECACwi23Sq4V7AQgQAWMDUp85q5OQ0BhYhAMBiBIBKGAIEixEAYBE+ddZEAIAFCACwGJtOPdwLWIAAAIvwxbNqTHY4jYFFCACwgMcuNgyoEoYAwYIEAFjAxuAZw4DKu88QIFiMAACL8xigMAOZYHECACwoZZtPcb6LAQsTAGBBhgGVZwgQLE4AgMUJAIXlHHeXXgP0lQAAixMASnMCAAsTAGBB2fPnGrgHsCABABaUfPoszhAgWJwAAAsyDKg4Q4BgCQIALGhjAM2nS69jxAwBgiUIALAcR9DleP4PSxAAYDk2oUIMYoLlCACwhCQAFGMQEyxHAIDl2ITKce1hCQIALGHqGLokAQCWIADAEgwDKsgcBliKAADLOE8AKEb4gqUIALCEi9fi7ojIpdcxQnlPMgQIliEAwBJuX0mnIuK+0usYoXs3rj2wIAEAlucounuuOSxJAIDl+TJaxwwBguUJALAkw4C6ZwgQLE8AgOXZjLrnmsOSBABYns2oe645LEkAgCV5BFCAIUCwNAEAlrS202bUOUOAYGkCACzJMKDOGQIEDUilFwBDsHd/vjcinl16HSNx7+pK+urSi4C+cwIAzfAYoDuuNTRAAIBmeCbdHdcaGiAAQDNsSh3JpgBCIwQAaIJvpXfJtYYGCADQgKSX3iUBABogAEADDAPqTnbaAo0QAKABAkB3nLZAMwQAaMBXfC4AGAbUPkOAoCEGAUFDDAPqhCFA0BAnANAcjwHa5/gfGiIAQHMEgPa5xtAQAQCa49Npy3zZEpojAEBT1NO64BpDQwQAaI7NqWVTY4ChMQIANMTxdPsMAYLmCADQkIkBNe07TwCApggA0BDDgFqXL16Lu0svAobCICBo0BX7830p4qtKr2OgDAGCBjkBgAYlVcA2Of6HBgkA0CybVHuEK2iQAABNSgJAW7QsoFkCADTLJtUe1xYaJABAk6aOqVskAECDBABokGPq9qwLV9AoAQAalKYCQGsMAYJGCQDQoPMfNwyoJYYAQcMEAGjQ0bekJ3PE/aXXMUD33b6STpVeBAyJAADNc1TdPNcUGiYAQPNsVs1zTaFhAgA0LPmtgI0zYhmaJwBA83xabZ5rCg0TAKB5NqvmuabQMAEAmmezapghQNA8AQAaNlmzWTXOECBonAAADTMMqHGGAEELBABo2NG3pCcj4oHS6xiQTxsCBM0TAKAFWW2tSa4ltEAAgHZ4Zt0c1xJaIABAO2xaDTEECNohAEA7BICG5OwLgNAGAQBaYBxwc1xLaIcAAO1wAtCQ5FpCKwQAaIdNqyFrO50AQBsEAGjB7s/Gx8MwoCbkZ3wmPll6ETBEAgC0wDCgxnx641oCDRMAoC3ZY4AGuIbQEgEAWpImNq8GeP4PLREAoCXTbPNqgBAFLREAoD02r2V5jAKtEQCgPTavJRkCBO0RAKAtPr0uzRAgaI8AAC1JE59elyUAQHsEAGjJZIfNa0n5vEf8IiBoiwAALTl2Q3oiDANahiFA0CIBANqkCrgMJyjQIgEAWmQY0FKEJ2iRAADtEgAW59pBiwQAaJdNbFFqlNAqAQBaNBUAluHaQYsEAGjT1HPsRU1MAYRWCQDQJsfYCzMECNolAECL1s/YxBZkCBC0TACAFp08kh4Pw4AWYQgQtEwAgPY5BZifawYtEwCgfTaz+blm0DIBAFrmd9ovxDWDlgkA0D6fZuelPQGtEwCgZYYBLcQ1g5YJANCybDObmxkA0D4BAFqW1j3PnpcpgNA+AQBaZhjQ3AwBgg4IANCyjWFAD5ZeR1/kiPsNAYL2CQDQDUfaM0quFXRCAIBueAwwO9cKOiAAQDdsarNKrhV0QQCADqi1zcW1gg4IANANm9qspr4DAF0QAKAD63rtM3NaAt0QAKAD2XPtmRkCBN0QAKAD+Qmb2owMAYKOCADQAcOAZmMIEHRHAIDueAywPdcIOiIAQFf8jvttmQII3REAoCu+3LY9X5aEzggA0BH1tpm4RtARAQC6Y3PbnmsEHREAoDs2t20kUwChMwIAdGRtYnPbTpoKSdAVAQA6cnqXzW0bOc43BAi6IgBAR953fXosIj5Teh21yhH3H7shPVF6HTAWAgB0y2OAzTkhgQ4JANAlw4C24tpAhwQA6JZNbhPJoCTolAAA3RIANufaQIcEAOiWTW5zrg10SACADjnm3pwhQNAtAQA6lHwJcFOGAEG3BADo0GMX+JS7CUOAoGMCAHTIMKBNPWAIEHRLAIDuOeo+SzYgCTonAED3BICnc02gYwIAdC37tHs27QjongAA3fNp9yw5+wIgdE0AgO4JAGdxAgDdEwCga2YBnItrAh0TAKBjE592n2ay5ppA1wQA6JhhQOdgCBB0TgCAjm0MA3qo9Doqcr8hQNA9AQAKSJ55f4EhQFCGAAAF2PS+hDAEBQgAUIZN74tcCyhAAIAybHpf5FpAAQIAlGHT22AIEJQhAEAJU5veUwhDUIAAAAWkXTa9p3AtoAABAAq44LQTgM9be9IQIChBAIACjt6cHg3DgCIi7j95JD1eehEwRgIAFGIYUPjFSFCQAACFTAWAyBoAUIwAAIUk0wAjhCAoRgCAcmx+rgEUIwBAOTY/1wCKEQCgnNFvfqYAQjkCABSSdtj8QgiCYgQAKGTHeTY/Q4CgHAEACnnvb6ZHIuLh0usoyBAgKEgAgLLGewpgCBAUJQBAQXnEswDSRACAkgQAKGu0m+A0jzf8QA0EAChp3MfgY37vUJwAAGWNeRMc83uH4gQAKGjUg3DGffoBxQkAUNZoN8E0GXH4gQoIAFDQzt3j3QQNAYKyBAAoaMTDgB4wBAjKEgCgvPE9BlABhOIEAChvdAHAECAoTwCAwsY4DdAQIChPAIDCJml8X4Yb43uG2ggAUNh0Or5Pw04AoDwBAMob3/NwQ4CgOAEAChvjNEBDgKA8AQAKG+MwIEOAoDwBAArbGAb02dLr6JAhQFABAQDqMKZn4mN6r1AtAQDqMJrHAGP8zgPUSACACqQ0qk/FY3qvUC0BAOowpk1xTO8VqiUAQB1GsylOR/ReoWYCAFRgVNMAx/ReoWICAFQgj2ky3pjeK1RMAIAKnPeM+FjpNXRl/YwAADUQAKACIxoGZAgQVEIAgHqM4ZPxGN4j9IIAAPUY/OZoCBDUQwCASoxkcxx8yIG+EACgHmPYHMfwHqEXBACox+A3R0OAoB4CAFQijWFzNAQIqiEAQCXW1kewORoCBNUQAKAS0xEMyDEECOohAEAlTh5JD0fEI6XX0aIHDQGCeggAUJNhH5EP/xEH9IgAADUZ9iyAIYcb6B0BAOoy2E1yJIOOoDcEAKjIwDfJwYYb6CMBAGqS4+7SS2iLIUBQFwEAKjLkE4AsAEBVBACoyJkBb5JpDIOOoEcEAKhIfnK4m+STu4f7eAP6SACAigx4GNCD77s+PVZ6EcAXCQBQm2EOAxrsyQb0lQAAtZkMMgAM8T1BrwkAUJs8yE/LAgBURgCA+gxus0wDfE/QdwIAVGaIm+V0wPMNoK8EAKjNAL8EaAgQ1EcAgMqsTYb3aTknAQBqIwBAZdYG2AJ45hlDgKA2AgBU5o9vTA/FsIYBPXj05vRo6UUAX0oAgDoN6RPz4E40YAgEAKjRsL41P6T3AoMhAECdhvSpeUjvBQZDAIAaDWga4BDnGsAQCABQo+Q7AEC7BACoUJoO5wRgfVjfZ4DBEACgQkM6NjcECOokAECFdqwPZ9M0BAjqlEovADi3vfvzIxHxzNLrWNKDqytpT+lFAE/nBADqNYRTgCG8BxgkAQDq1f/Nc4C/2RA31Bo9AAADnUlEQVSGQgCAWg3h2/NDeA8wUAIA1Kv3n56H1GaAoREAoF5D2DyH8B5gkAQAqFfvN09DgKBeAgBUajKAaYCGAEG9BACo1BCGARkCBPUyCAgq1vNhQJ9ZXUkXlV4EcG5OAKBuff4E3ftHGDBkAgDUrb+bqCFAUDUBAOrW301UAwCqJgBAzfq8ieZeP76AwRMAoGK5x5to6nN4gREQAKBiPd9E+/v4AkZAAICa9XiQztqk1+EFBk8AgIpNJv0NAIYAQd0MAoLK9XQYkCFAUDknAFC/Pn6S7u3JBYyFAACVS33cTLPn/1A7AQAql/s5DbB/oQVGRgCA+vVxM+3jmmFUBACoXO7hZtrz+QUwCgIA1K93ASD6uWYYFQEAKpd6OFAn+U2AUD0BACrXx2FA50/7t2YYG4OAoAf27s+PRsQzSq9jRoYAQQ84AYB+6NMwIJ/+oQcEAOiB1KdZAIYAQS8IANAH/fpSXZ/WCqMlAEAP5H716gUA6AEBAHogZ98BAJolAEAf9OgEwBRA6AcBAHogRXyk9BpmNenRWmHMBADogUf3xIciYq30OraTI059zT3xl6XXAWxPAIAe+MDBdDoiPlh6HdtJEX96661pvfQ6gO0JANATOeIPS69hBkdLLwCYjQAAfZHif5VewnYmKe4ovQZgNgIA9MSXfTZuj4iHSq9jC/edfjLeVXoRwGwEAOiJo29JT6YUby+9ji287eSRdKb0IoDZCADQI+s74l9GnW2AM2uTOFR6EcDsBADokTtvSP8vpbil9DrO4cjJm9LHSi8CmJ0AAD0zXY+fj4j7S6/jKe7dtRa/UnoRwHwEAOiZE29KD0TET5Vex4YcKV77njenz5ReCDAfAQB6aHUl/V5E3Fh6HSniX6weSv+59DqA+QkA0FOre+JnIxdsBaT4neMr8YZirw8sRQCAvjqYps+5N34sIn6rwKv/u90XxWsiUi7w2kADUukFAMvKae+B+NnI8WsRsavVV4o4NYn4x8dXksof9JwAAANxxbX5xSnFb0XEt7XyAjlWc4rXnlhJf9LKzwc65READMSJw+mu59wTV0TE388RH27wR/95pHjl6sVxlc0fhsMJAAzQSw7mnU/eH9+fU7w6Ir43InbP+SMei4jbI8XvrF4U/z0OpmnzqwRKEgBg4K58fd49PR1Xpx1xRUR8a87x9ZHj4kjxrIjIkeOhSHFfRHw0UvxJnsbqnhTvvX0lnSq8dKBF/x816LrtTHrANAAAAABJRU5ErkJggg==;rotation=0;" vertex="1" parent="1">
          <mxGeometry x="377.76" y="270" width="50.48" height="50.48" as="geometry" />
        </mxCell>
        <mxCell id="2x5KOI2VVmD8Ad78hVKM-8" value="" style="shape=image;verticalLabelPosition=bottom;labelBackgroundColor=default;verticalAlign=top;aspect=fixed;imageAspect=0;image=data:image/png,iVBORw0KGgoAAAANSUhEUgAAAgAAAAIACAYAAAD0eNT6AAAACXBIWXMAAA7DAAAOwwHHb6hkAAAAGXRFWHRTb2Z0d2FyZQB3d3cuaW5rc2NhcGUub3Jnm+48GgAAIABJREFUeJzt3XuwbmddH/Df8+59EgImQILNORGVSzSWGCXsExGMLYoo2s50ajHqaEHpVHobsbWt9zY4rZUpnSI6ZaS2CtQpTiS1toXaBho7Ugzn7MMlpo4YSwg5e+9zcicXci77ffrHOYTLOXvv97LWep611ufzp5D9/vb7Ytb3fdb6/nYKYPDyS559UZw6/bLIk5dH5Gsi4rkR8fSz/+mnI9InIuL2SPl9kSe3pvWNxwuOC3QglR4AaE++9sBXRsr/MFL6wYh4xmz/VHo4In4zVrbflD507BNtzgeUIwDAAOWXPPuiODn9+Yj8oxFxwYI/5mSk+DeR0884EYDhEQBgYPK1+18Qk3RzRFzV0E+8MyJ/d1o/dnszPw+ogQAAA5IP7n9Z5MnvROSnN/yjH4lJ+u50aOOWhn8uUIgAAAOR1y5/ccTkloj4kpZe4vGI9B1pfeMPWvr5QIcEABiA/A2XPze2J38YEX+u5Zd6IFJ6aTq88Sctvw7QsknpAYDl5BdfeklsT3432r/4R0RcGjm/N3/d5V28FtAiAQB6LK/Fvti+4OaI+NoOX/a5sW9yc37Zc57S4WsCDRMAoM/SgV+JnF5e4JW/KR45+Y7sNiL0lgAAPZXXDvxs5PiRghN8T6xd8YZyrw8sQ3qHHspr+78nIv1WlP//4RyRfzitb7298BzAnEr/ywOYU75u/3UxTbdGxFNLz3JGOhXT9J3pw0ffV3oSYHYCAPRIh3W/eakHQs94BgB6ouO637zUA6FnBADogUJ1v3mpB0KPCADQB+XqfvP6pnjk5NvVA6F+AgBULh888DNl637zyjeoB0L9pHSo2Nm637uif2FdPRAqJwBApeqr+81LPRBqJgBAhSqu+81LPRAq1bdjRRi8yut+81IPhEoJAFCRntT95qUeCBUSAKAm+cAv96TuNy/1QKiMAACVyAcP/EykeF3pOdqTb4i1K24sPQVwhjQOFehx3W9eOVL+oXR46x2lB4GxEwCgsP7X/ealHgg1EACgoAHV/ealHgiFDf24Eao1sLrfvNQDoTABAAoYaN1vXs+NfZN3qwdCGQIAlDDcut+8rlcPhDIEAOjY8Ot+81IPhBKkbujQiOp+81IPhI4JANCR8dX95pVORd5+ZTpy7P2lJ4ExEACgAyOu+81LPRA64hgSWjbyut+81AOhIwIAtEjdbyFn6oFXXnlh6UFgyAQAaJO636Kuj6c//g71QGiPAAAtUfdblnogtEm6hhao+zVGPRBaIgBAw9T9mqYeCG0QAKBB6n6tUQ+EhjmehIao+7Xq0sj5PeqB0BwBABqg7teJ56kHQnMEAGiCul9X1AOhIQIALEndr2vqgdAEKRqWoO5XjHogLEkAgAWp+5WmHgjLEABgAep+1VAPhAU5toQ5qftV5Uw98Nr9X1p6EOgbAQDmkNdiX5y68N2h7leT58Uk3aweCPMRAGAe+cAvR4pvKz0G51APhDkJADAjdb/a5Rvi4BX/tPQU0BfSMsxA3a831ANhRgIA7EHdr2/UA2EWAgDs4mzd74MRcXnpWZiLeiDswXEm7ODz6n4u/v2jHgh7EADgPNT9BkE9EHYhAMD5qPsNhXog7EAAgC+SX3Tgp9X9hkQ9EM5HKobPo+43WOqB8EUEADhL3W/o1APh8wkAEOp+I/JArExekj509OOlB4HSHHMyeup+o3JpbE/fqx4IAgAjp+43SuqBEAIAY6fuN1bXxzMefbt6IGMmADBa6n4jl9P3qgcyZtIvo6Tux1k5UrwmHd58Z+lBoGsCAKOj7scXUg9knAQARkXdjx2oBzI6jj8ZDXU/dqEeyOgIAIyCuh8zUA9kVAQAxkHdj9moBzIaAgCDp+7HXNQDGQkpl0FT92NB6oEMngDAYKn7sRz1QIZNAGCQ8gv3PydW0h+GJ/5Zjnogg+VYlMHJL770klhJ/yVc/FmeeiCDJQAwKOp+tEA9kEESABgWdT/aoR7I4AgADIa6H63K6XvjRfv/SekxoCnSLIOQD+5/VeT0WyHU0i71QAZDAKD31P3oVjoVMf2OtL71v0pPAssQAOg1dT8KUQ+k9xyX0lvqfhSkHkjvCQD0krofFVAPpNcEAPpJ3Y86qAfSWwIAvaPuR1XUA+kpqZVeUfejUuqB9I4AQG+o+1E39UD6RQCgF9T96An1QHrDMSrVU/ejR9QD6Q0BgKqp+9FD6oH0ggBA3dT96Cf1QKonAFAtdT96TT2QykmnVEndj4FQD6RaAgDVUfdjYE5G5FeqB1IbAYCqqPsxUOqBVMfxKtVQ92PA1AOpjgBAFdT9GIHnxSS9Wz2QWggA1EHdj3H4ZvVAaiEAUJy6H6OiHkglpFCKUvdjpNQDKU4AoJh87YGDMYnfD3U/xkk9kKIEAIpQ94OIiLg/ViYvVQ+kBMeudE7dD550mXogpQgAdErdD86hHkgRAgDdUveD8/nmuOTR31APpEsCAJ3Jawd+St0PdpDS98Xa/p8rPQbjIW3SCXU/mIl6IJ0RAGiduh/MRT2QTggAtErdDxaiHkjrHMfSGnU/WNhlsZ3fox5ImwQAWqHuB8vKz1cPpE0CAC058BZ1P1iaeiCtEQBoXF478FMR8bdKzwGDoB5IS6RKGqXuB61QD6RxAgCNUfeDVqkH0igBgEao+0En1ANpjGNalqbuB51RD6QxAgBLUfeDrqkH0gwBgCWp+0EB6oEsTQBgYep+UJB6IEuSHlmIuh9UQT2QhQkAzE3dD6qiHshCBADmou4HVVIPZG6Ob5nZmbrf5HfDxR9qox7I3AQAZvK5ul++pvQswPmoBzIfAYAZqftBD6gHMjMBgD2p+0GPnKkH/mzpMaiflMiu1P2gl9QD2ZMAwI7U/aDX1APZlQDAean7wSCoB7Ijx7qcQ90PBkM9kB0JAHwBdT8YGvVAzk8A4Iuo+8EAqQdyDgGAJ6n7wYCpB/JFpEEiQt0PRiJHjlenI5v/ofQglCcAoO4H46IeSEQIAKOn7gejdH9sr7wkfeSePy09COU47h0xdT8YrctiZfpe9cBxEwBGKq/Fvti+4GZ1vycdixRvLj0ErftnEenPSg9Rh/z8SOmmfPXVF5SehDIEgNE68JbI6eWlpygvnYqIt0Q8cVWcWnlT6Wlo2SS9LWLjz0fEj0XEI6XHKS7FX4wL73+7euA4CQAjpO53Vsrvi8n02rS++fq0/uDD8dX3bEXE6dJj0ZrteNrGZlqPU2l985diuvo1keOdEZFLD1aUeuBoSX0jo+4XEZHvjIifTutbN53zn6wduDsivrz7mejA0bS++ewv/j/m6/ZfF9PJL0fkF5cYqhLqgSM04ovA+ORrDxyMnN4e4/3cH4uU3hAXP+Wa8138IyIix6c6nonOpPN+tunQ1qFY33hppPyaiDje8VC1SJHi3+W1/d9SehC6M9YLwejkF+5/Tkziv8Y4u/45It0UkV6QDm/cmG6964kd/5sp3dPhXHQq7/jZpohpOrz1jti+8KqI/MaIONnhYLW4ICLdlF/47K8qPQjdEABGIH/d5U8bbd0vx6HI05em9Y0b0vrG3TP8AwLAcB3d67+QPnLXQ2l96ycjTdci0vu7GKoyl8XK9u/kq7/0S0oPQvsEgDFYnbx1hHW/rcjptXFk8xvTkWN/OPM/5RbAgOWZP9t0+NgfpfWNl0eKV0XEXe3NVKUXxEWrby09BO0TAAYuH9z/XZHir5eeo0MnI9KbYvXEVenIxq+niOlc//TECcBg5cncn206vPnuuGDlBZHzjRHxePNDVSrHD+aD+7+z9Bi0SwAYupx+vvQInclxS0zyi9L6xj9Ktz3w6YV+xlQAGKyVxU530gfv+Uw6svWGOL3y1aOqDeb0C/YDDJsAMGB57Ypvj4i10nO0L98ZkW9IRzZfkQ5t3bHUj9q3KgAM11K3d9JH7zmajmy+Oib5WyLyx5oaqmIvjGu/7FtLD0F7BIAhy/nHSo/QskcipZ+IJy67esda37y+4uhmWAY0RNsx3dhq4gelQ1u/HxdvrUXOfy8iHmjiZ1ZrMvh/h4ya452ByldeeWE8/bEHI+Ki0rO0IEek345J/Hg6tNH4Q3uWAQ3SeZcALStf8xXPjAtO3RgRfzciVpr++RV4PJ649JnpjjvGWIscPCcAQ/XMR78xhnnxX49Juj6tb9zQxsU/IiKS5wCGp539Dun2ux9M65uvjxzXRMT/aOM1CntqPPXBg6WHoB0CwFBN47rSIzRsK3L+4VjfvC4d2vg/rb5SnqgCDk1uN9SlI5t/HOubr4yUvj+WfNagOtM8tH+XcJYAMFjp0tITNOPsX+tbPXFVOrL1G6mTJ7CdAAzOpP2LcorI6fDGuyLS10RKb4iInTdO9klKzyw9Au0QAIYqpUtKj7C0HLfEdPrCtL75+oVrfYtIIQAMTcsnAJ8vrW88ng5v3Birk686Wxvsufz00hPQDgFgqPJ0vgU4dfl4pPyX0pHNV6QPb/3fzl+9w4sFHVlgCdCy0m1H7zlTG0yviIju/3fclOlI9h6MkAAwXDPsva/Omb/W9/DTvi4d3npPsSny7Ctj6YkFlwA1IR3auCUu3vz6yPG6iLiv1BwLS+mu0iPQDgFguD5ZeoA5TCPlX4/J6SvT4Y0b0513nig6jWVAw3M67/mHgNqUbo3T6cjm2+LU9OqI+LWYd0V1SWl0fwthNASAoZru+0D0YWVpisMxnVyfDm+9Nh26t5FFLUuzDGhotmOyuVF6iIiI9LFjx9P65t+MlA5GxB+UnmcG01g5fVvpIWiHRUADlg8eOBQ5Ku3wps3I+cY4svlrc//Bng7ktQOfiojGF8dQRCtLgJaVI1Ks7X9VRHpTRHxF6Xl28IG0vnl96SFohxOAIcvp3aVHOI8TEfmN8ZSTV6Ujm2+r8eIfERHJcwADUvT4fycpIqf1rZviidNXR+Q3RkTZW1/nd3PpAWiPADBon3lrRDxUeoon5bglclyb1rd+Mn3gvkdKj7OrAk+N05qqH4hNd9z7aFrf+snIK18bkZr5mxbNeCCecurflh6C9ggAA5bWH3w4In6l9BwR8acR+S+nI5uvSEc2/7j0MLNxAjAYPdnrkI7cc2da37ghppNvi4jl/qplM/519UGdpQgAQ3dq+osR8fFCr/7ZWt81aX3rvxWaYVFVHhuzgJ7tdUgfPvq+iM1rI+LHItLDZabId8YTp99c5rXpigAwcOljxx6LafzA2ZW6XcmR452xuv38Kmp9C3ECMBg9vJ2T1uNUWt/8pVhJz4+It0S3z8qcjhQ/kO6499EOX5MCBIARSB/ePBwxfX10UQtM+YMxjW9IRzZfnW47fqz112vLdKV3Fw12MOnHLYDzSR86en9a33x9xPSlEfGhDl4yR46/kw5vdfFaFCYAjERa33prRPz9Fl9hM3K8Lg5vXX8mcPTcar+OjdlF7v9f50vrx26L9c1vjJRfExFt7cvIkdKPpiObHvwbCQFgRNL65i9FTq+NiMcb/LEnIuIX44lTX111rW9eT9vYjIjt0mOwtGnExmbpIZpw5q8Nbr0jVk9cFZH+VcO39R6LlH8oHd6o4aFhOmIR0Ajl6/ZfHdPJf4zI1yz3g/LvRpr+g7R+/M8aGq0qlgENQd5I61tfVnqKNuSDV1wVkd8cOV655I/6aOT4/v40dGiKE4ARSoe27ojnbVwbkX8oIj4x5z+eI9L7I8dfSEe2/spQL/5nJLcBem+4n2E6vPEn6fDmd8Z08m2R4n8v8BP+LFK8Op63uebiP05OAEYur8W+yAe+NSL+aqT4roj48nP/W+lU5PyRSOm9kfO7xvIvi7x24KaIeFXpOVhCipvT4c2/VnqMLuS1y6+JPPneSPHKiPj6iFg9z3/t7oh4T0T6T3HxxvvTrf7mxZid738gjEhaj1MRm78XEb8XEZFf8uyL4sT2cyLiWRErD0eaPhQPP/VYP6t8S8rxKRG553J/GwDzSuvHbo+I2yPiZ/OVV14YFz+2P2LyjEjTSyKle+OCySfTB+/5TOk5qYcAwBc4+y+IUXzD31NPNsixm1z1GuC2nA3sn4x+/VlwOuYZANhJzzbIcR49XAIEXREAYCd5pff98dHr8RIgaJsAADuxDKj/BrAECNoiAMBOnrOxEZYB9dlglgBBGwQA2EG6KbajvbWrtC5vnWm5AOcjAMCukiPk3pr47GAXAgDsynMAvaXFAbsSAGA3HiLrL3scYFcCAOwm5aOlR2BRTgBgNwIA7MYJQH9lzwDAbgQA2M2KTXK9ZQkQ7EoAgN1MXUR6y+kN7EoAgN1cbBlQT1kCBHsQAGAXZ/9eumVAvWMJEOxFAIA9JbcBesdnBnsRAGBP2b3kvnH/H/YkAMBeLJTpH58Z7EkAgL1YKdtDPjPYiwAAe8l2AfRO8pnBXgQA2MuK+8k95DODPQgAsBfLgPpn2y0A2IsAAHuxDKhvpnHyUkuAYA8CAOzhzDKgfKz0HMwqb6U77jhZegqonQAAM/GX5frDEiCYhQAAs1AF7A9LgGAmAgDMwmKZ/vBZwUwEAJiJE4D+8FnBLAQAmEX2DEBvWAIEMxEAYBYTx8o9IqzBDAQAmIXFMv3hs4KZCAAwi8mmZUD9YAkQzEgAgBmk9ThlGVAfpGOWAMFsBACYmQUz9cvu/8OMBACYlQUz9bMDAGYmAMCsXFzqJ6TBzAQAmJmny6uX89HSI0BfCAAwKwtm6jexsAlmJQDA7FxcapfdpoFZCQAwKwtm6jfVAoBZCQAwK8uAamcJEMxBAIAZnVkGlI6XnoOdWAIE8xAAYC6OmOvls4F5CAAwD7sA6uWzgbkIADAPT5nXy2cDcxEAYB5ZE6BaPhuYiwAA87Bopl4+G5iLAADzcMxcL58NzEUAgHlsT11kauWzgbkIADCPla2jETEtPQbnmMapyzZKDwF9IgDAHM4uAzpWeg6+mCVAMC8BAOblafP6+ExgbgIAzGvirwJWx2cCcxMAYF6eNq+PzwTmJgDAvBw318dnAnMTAGBek4mLTW18JjA3AQDmld1vro7PBOYmAMC8LJypj88E5iYAwLwsA6qNJUCwAAEA5nRmGVAcLz0Hn2UJECxCAIBFuOdcDw0AWIgAAItIeufV8FnAQgQAWIhvnRVxGgMLEABgEUnvvBpuAcBCBABYjG+dtbAECBYiAMAipr51VsNnAQsRAGARqxbPVGOancbAAgQAWMRjz7IMqA6WAMGCBABYwNnFM5YBlXfcEiBYjAAAi9I/L89CJliYAACLcvEpTwiDhQkAsDBPn1dACIMFCQCwKMuAykvpaOkRoK8EAFhUdvxcAScAsCABABZlAU15PgNYmAAAi9o39e2zNEuAYGECACzKMqDSLAGCJQgAsKCzC2juLT3HiFkCBEsQAGAZyUNoxdgBAEsRAGAZmgDlWMQESxEAYBnZU+jleO9hGQIALMMyoHK897AUAQCW4xi6FLdfYCkCACzDIppysh0AsAwBAJaxOhUASvHew1IEAFjGgxcfjYhceowRyvHAxZYAwRIEAFhCuvPOExFxvPQcI3Ts7HsPLEgAgOU5iu6aJUCwNAEAludhtK5ZAgRLEwBgWZYBFeA9h2UJALAsC2m65z2HpQkAsCwnAN2zBAiWJgDAslYEgM5ZAgRLEwBgaS5GnbMECJYmAMCyLAPqmiVA0AABAJZ0diHNvaXnGJHjlgDB8gQAaIbbAF1J3mtoggAAzXBPuisaANAIAQCakJKLUmc8dAlNEACgCb6VdscSIGiEAABN0EvvjrAFjRAAoAmWAXVn6r2GJggA0ISpxTSd2Td12gINEACgCQ9fck9YBtQFS4CgIQIANMAyoM5YAgQNEQCgOW4DtM0SIGiMAABN8WeB26cBAI0RAKApk4lvp20TsqAxAgA0xbfT9lkCBI0RAKApvp12wSkLNEQAgKZMBIDWWQIEjREAoCnZgprWrVq4BE0RAKAplgG1LceDFx8tPQQMhQAADTm7oOa+0nMMmCVA0CABAJrlNkB7HP9DgwQAaJImQJuEK2iQAABN0lNvj3AFjRIAoFEuUq0RrqBRAgA0KTumbo0TAGiUAABNsgyoPcIVNEoAgCZNVwWAtlgCBI0SAKBJl6xaBtQOS4CgYQIANCjdetcTYRlQGywBgoYJANA8R9XN855CwwQAaFryIGALvKfQMAEAmpYnnlZvWs7eU2iYAACNcwLQOEuAoHECADQtOa5unCVA0DgBAJrmYtU8S4CgcQIANC2vulg1zRIgaJwAAE2zDKhplgBBCwQAaNjZZUD3l55jQO61BAiaJwBAO9wGaI73ElogAEAbLANqkvcSWiAAQBuy3npjLAGCVggA0AZVwOakiQcAoQUCALRh4r51Y5wAQCsEAGiDE4DmrHgvoQ0CALRhe9VFqzFOAKANAgC04RmrnwrLgJqQ42kXbZQeAoYolR4AhiqvHbg3Ip5Veo6eO57WNy8vPQQMkRMAaI/bAMvzHkJLBABoTXLxWp77/9ASAQDa4+K1rCREQVsEAGiLKuDyslsA0BYBANoyEQCWZgkQtEYAgLZMBYClWQIErREAoC3Tfb69Lms6FQCgJQIAtOUi96+XlOPip/pDQNASi4CgRXntwH0RcVnpOXrKEiBokRMAaJfbAItzggItEgCgVXrsSxCeoEUCALTKU+wLswQIWiUAQJuSY+yFWQIErRIAoE22AS7OewetEgCgTTbZLW7FewdtEgCgTaurvsUuyhIgaJUAAG3adoy9IEuAoGUCALQorW88HhH3l56jh+5Nt971ROkhYMgEAGifU4D5ec+gZQIAtE6ffW4aANA6AQBa52n2uU0m3jNomQAAbbMMaH6WAEHrBABom+Ps+XnPoHUCALRtuuJiNq+JAABtEwCgbfv8Vbu55an3DFomAEDbLAOalyVA0AEBAFp2dhnQA6Xn6JH7LAGC9gkA0A1H2rPzXkEHBADohGVAM9MAgE4IANAFF7XZpYn3CjogAEAXLAOag7AEXRAAoAtOAGaXPQMAXRAAoAt5xUVtVpYAQScEAOjCiovazCwBgk4IANAFx9qzsgQIOiIAQAcsA5qZJUDQEQEAOuM2wAy8R9ARAQA6YxnQnnJ2qwQ6IgBAVzwHsDdLgKAzAgB0xTKgGbhNAl0RAKArlgHtTUiCzggA0JUVx9t78wwAdEUAgK54BmBv01UhCToiAEBXTm67uO0ux4VhCRB0RACAjqSPHXssIh4sPUfF7ksfvOczpYeAsRAAoFPuce/CCQl0SACATlkGtKOkJQFdEgCgS2puO8sTpyPQIQEAumQXwC68N9AlAQC6lO0C2JHTEeiUAABdWrELYGcekIQuCQDQpalvuTuyBAg6JQBAl05t+5Z7fpYAQccEAOiQZUA7ut8SIOiWAACdswvgPJyMQMcEAOiaKuC5LAGCzgkA0LWJb7vnsAQIOicAQNecAJwrZw8AQscEAOiaZUDncioCnRMAoGsTuwDO4VQEOicAQNeyb7vnyKveE+iYAABdswzoXJYAQecEAOjY2WVAD5WeoyL3WQIE3RMAoAz3vD/HiQgUIABACZ4D+BxLgKAIAQBKSE4AnqQWCUUIAFCEb71PUgGEIgQAKCH51vskS4CgCAEAynDR+ywnAFCEAAAlTF30nrS96r2AAgQAKOHEaScAn7UytQQIChAAoIB0x72PhmVAERH3pfWNx0sPAWMkAEA5jr69B1CMAACl2AUQkbJbIVCIAACl2AZoCRAUJABAMZoAKoBQjgAApVgGFDERAKAUAQBKyZ4BcBsEyhEAoJTsAThLgKAcAQBKueiUi58lQFCMAACFpA/c90hEerj0HAVZAgQFCQBQ1Kgfghvz7w7FCQBQUhrzQ3BJAICCBAAoadxNgBGHHyhPAICSxrwIZ8y/O1RAAICSJiNeBmQJEBQlAEBJY16EMxUAoCQBAEqaTsd7EZzuG2/4gQoIAFDSU0+P9yJoCRAUJQBAQSNeBnS/JUBQlgAAxY3yXvh4Tz6gEgIAlDfCAGAJEJQmAEB5Y/w2PMbfGaoiAEBpKY3vYbiUx/c7Q2UEAChvhN+G8wh/Z6iLAACljXEhzhh/Z6iMAACl5RF+G7YECIoTAKC0MS4DsgQIihMAoLAzy4Di06Xn6JAlQFABAQDqMKZ74mP6XaFaAgDUYUS3AdKIfleolwAAdRjRt2INAKiBAAA1SCNajZvGFHagXgIA1CCP6KKYnQBADQQAqMGYdgGM6XeFigkAUIOVEX0rXl0dz+8KFRMAoAYXnL679Aid2R5R2IGKCQBQgREtA7IECCohAEA9xvDNeAy/I/SCAAD1GMHF0RIgqIUAAPUYwcXR/X+ohQAAtRjDMiBLgKAaAgDUYgzLgCwBgmoIAFCLMVwcLQGCaggAUIuVEVwcLQGCaggAUIvpieFfHC0BgmoIAFCJtP7gwxHxSOk5WvSAJUBQDwEA6jLkb8jDv8UBPSIAQF0GfJEcQc0RekQAgJoMugkwgoccoUcEAKjJZDLci6QlQFAVAQBqMs1HS4/QmkGfbkD/CABQl+GeAExXBACoiAAANZlMh3uR3DfgcAM9JABATfLJ4V4knzg93Nsb0EMCAFRkwMuAHkgfO/ZY6SGAzxEAoD5DvA0w3JMN6CkBAOozwABgCRDURgCA2gzxT+aqAEJ1BACoTZoM72JpCRBURwCA2gzy2/IATzWg5wQAqM1kgAHAEiCojgAA1Rngt+WVAYYa6DkBAGpz+qLhXSw/c8oSIKiMAACVSR+566EY1jKgB9Id9z5aegjgCwkAUKcBfWN2/A81EgCgTgN6DmAyoN8FhkMAgBqlAX1rHmStEfpPAIAa5QF9a7YECKokAECNch7OMwBOAKBKAgDUaDKgXQB5ZTi/CwyIAAA1GtK3ZkuAoEoCANTo5IXDuWhaAgRVEgCgQun2ux+MiCEsz7EECColAEC9BnAK4PgfaiUAQK3yEAJAGsDvAMMkAECjwasKAAADm0lEQVSthtAEyEPaaAjDIgBArfKk/9+eLQGCagkAUKshVAGH8DvAQAkAUKvJAC6elgBBtQQAqFUewDMAlgBBtQQAqNUQlgFZAgTVEgCgUgNYBvSgJUBQLwEA6tbjb9ADuIUBAyYAQM163aO3BAhqJgBAzVKPL6K9Di8wfAIA1K2/F9GUe3z7AoZPAICa9fki6gQAqiYAQNV6/CDdygBWGcOACQBQs+lqfy+iTgCgagIA1OzCHv8xHUuAoGoCAFQsffCeB6Kfy4AsAYLKCQBQvx5+k+5xfRFGQgCA2qU+/kGdHj+8CCMhAEDt8qR/F9PU42cXYCQEAKheD08Acg9nhpERAKB2ffw2rQII1RMAoHZ9/DZtCRBUTwCA2uXV/n2bnvbw1AJGRgCA2vVxGdATp/o3M4yMAACVO7sM6LHSc8zBEiDoAQEA+qFHy4AsAYI+EACgD1KfFuv0aVYYLwEA+iD36Kn6PtYWYYQEAOiFHn2r7mNtEUZIAIB+6M8zAH06rYAREwCgF3p0ArBiCyD0gQAAfTCNT5QeYWbT0/2ZFUZMAIA+OHnZnRFxuvQYMzgRzzt+V+khgL0JANAD6Y47TkbEx0vPMYM/SjfFdukhgL0JANAb6fdLT7C3dGvpCYDZCADQFzn/z9Ij7CnnW0qPAMxGAIC+uOTC90bEQ6XH2MXxSJvvKz0EMBsBAHoi3XrXExHxrtJz7Cy9M63HqdJTALMRAKBPJtN/GVW2AdKpiHhL6SmA2QkA0CPp0LH/FxFvLz3HOVK8La1v3F16DGB2AgD0zcrkJyLivtJjfJ5jcWL150oPAcxHAICeSR86en+k/LdLz3FWjpRel26/+8HSgwDzEQCgh9Lhrd+OFG8uPUek+Bfp8MZ/Lj0GML9UegBgMTliEi/a/5uR0vcVGSDlX4/DW38jReQirw8sxQkA9FSKmMbzt34wcvxq5y+e87+PL9n6ERd/6C8nANBzOSLF2v4fj5j8QkTe1/LLnYhI/zitb6j8Qc8JADAQ+doDB2MSvxoRL2rnFdJtMU2vSx8++tF2fj7QJQEABiR/T6zEJ654TeT46Yj8/IZ+7J9Ein8ehzd/M0VMG/qZQGECAAxQflmsxqNXfFfk/NqI+PaIuGjOH/FYRLz37IN+/92FH4ZHAICByy959kVxanp9RP6GyOnrI/JXRsSzIuKZceYhvoci0vFI009GTh+NPL0tPn3xB9Kdd54oOznQpv8PK6Hf9mixy+0AAAAASUVORK5CYII=;rotation=-25;" vertex="1" parent="1">
          <mxGeometry x="419.82" y="405.05" width="54" height="54" as="geometry" />
        </mxCell>
      </root>
    </mxGraphModel>
  </diagram>
</mxfile>
